<svg id="Layer_1" data-name="Layer 1" xmlns="http://www.w3.org/2000/svg" viewBox="0 0 569.82 405.71"><defs><style>.cls-1{fill:#ffd659;}.cls-2{fill:#ffb700;}.cls-3{font-size:105px;font-family:Nunito-Black, Nunito;}.cls-3,.cls-4{fill:#333;}</style></defs><title>Artboard 1</title><path class="cls-1" d="M563.88,186.18h-513A8.87,8.87,0,0,1,42,177.3V32.36a8.87,8.87,0,0,1,8.87-8.87H563.88a5.92,5.92,0,0,1,4.89,9.28l-47.27,68.7a5.94,5.94,0,0,0,0,6.72l47.27,68.7A5.93,5.93,0,0,1,563.88,186.18Z"/><path class="cls-2" d="M521.5,108.19a5.87,5.87,0,0,1-1-3.36H42V177.3a8.87,8.87,0,0,0,8.87,8.88H563.88a5.93,5.93,0,0,0,4.89-9.29Z"/><text class="cls-3" transform="translate(189.81 134.94)">iOS</text><path class="cls-4" d="M15,405.71a15,15,0,0,1-15-15V15a15,15,0,0,1,30,0V390.71A15,15,0,0,1,15,405.71Z"/></svg>