<svg id="Layer_1" data-name="Layer 1" xmlns="http://www.w3.org/2000/svg" viewBox="0 0 569.82 405.71"><defs><style>.cls-1{fill:#ffd659;}.cls-2{fill:#ffb700;}.cls-3{font-size:105px;font-family:Nunito-Black, Nunito;}.cls-3,.cls-5{fill:#333;}.cls-4{letter-spacing:-0.01em;}</style></defs><title>Artboard 1</title><path class="cls-1" d="M5.94,186.18H519a8.87,8.87,0,0,0,8.87-8.88V32.36A8.87,8.87,0,0,0,519,23.49H5.94a5.92,5.92,0,0,0-4.89,9.28l47.27,68.7a5.94,5.94,0,0,1,0,6.72L1.05,176.89A5.93,5.93,0,0,0,5.94,186.18Z"/><path class="cls-2" d="M48.32,108.19a5.87,5.87,0,0,0,1-3.36h478.5V177.3a8.87,8.87,0,0,1-8.87,8.88H5.94a5.93,5.93,0,0,1-4.89-9.29Z"/><text class="cls-3" transform="translate(76.15 134.94)">And<tspan class="cls-4" x="209.05" y="0">r</tspan><tspan x="252" y="0">oid</tspan></text><path class="cls-5" d="M554.82,405.71a15,15,0,0,0,15-15V15a15,15,0,0,0-30,0V390.71A15,15,0,0,0,554.82,405.71Z"/></svg>