<svg id="Layer_1" data-name="Layer 1" xmlns="http://www.w3.org/2000/svg" viewBox="0 0 1451.68 4794.68"><defs><style>.cls-1{fill:#ffd659;}.cls-2{fill:#ffb700;}.cls-3{font-size:150.73px;font-family:Nunito-Black, Nunito;}.cls-3,.cls-5{fill:#333;}.cls-4{letter-spacing:-0.01em;}</style></defs><title>Artboard 1</title><path class="cls-1" d="M632.19,1859.68H1368.7a12.74,12.74,0,0,0,12.74-12.74V1638.87a12.74,12.74,0,0,0-12.74-12.74H632.19a8.51,8.51,0,0,0-7,13.33L693,1738.08a8.51,8.51,0,0,1,0,9.65l-67.85,98.62A8.51,8.51,0,0,0,632.19,1859.68Z"/><path class="cls-2" d="M693,1747.73a8.52,8.52,0,0,0,1.5-4.83h686.91v104a12.74,12.74,0,0,1-12.74,12.74H632.19a8.51,8.51,0,0,1-7-13.33Z"/><text class="cls-3" transform="translate(896.14 1786.12)">iOS</text><path class="cls-1" d="M821.65,2212.11H85.14a12.74,12.74,0,0,1-12.74-12.74V1991.3a12.74,12.74,0,0,1,12.74-12.74H821.65a8.51,8.51,0,0,1,7,13.33l-67.85,98.62a8.51,8.51,0,0,0,0,9.65l67.85,98.62A8.51,8.51,0,0,1,821.65,2212.11Z"/><path class="cls-2" d="M760.81,2100.16a8.49,8.49,0,0,1-1.5-4.82H72.4v104a12.74,12.74,0,0,0,12.74,12.74H821.65a8.51,8.51,0,0,0,7-13.33Z"/><text class="cls-3" transform="translate(121.47 2138.56)">And<tspan class="cls-4" x="300.11" y="0">r</tspan><tspan x="361.76" y="0">oid</tspan></text><rect class="cls-5" x="1.87" width="1449.81" height="4794.68"/></svg>