<svg id="Layer_1" data-name="Layer 1" xmlns="http://www.w3.org/2000/svg" viewBox="0 0 600 1201.51"><defs><style>.cls-1{fill:#1b1464;}.cls-2,.cls-3,.cls-4,.cls-5,.cls-6{fill:none;stroke-miterlimit:10;}.cls-2{stroke:#ee5a24;}.cls-3{stroke:#ffc312;}.cls-4{stroke:#fda7df;}.cls-5{stroke:#12cbc4;}.cls-6{stroke:#fff;}</style></defs><title>Artboard 1</title><rect class="cls-1" x="-13.36" y="-6.76" width="626.73" height="608.5"/><path class="cls-2" d="M-29.5,407.5a8.84,8.84,0,0,1-3.44-.69,9,9,0,0,1-5.56-8.31V333a9,9,0,0,1,9-9H36a9,9,0,0,1,6.36,15.36l-65.5,65.5A9,9,0,0,1-29.5,407.5Zm9-65.5v34.77L14.27,342Z"/><path class="cls-2" d="M36,117H-27a9,9,0,0,1-9-9,9,9,0,0,1,9-9H36a9,9,0,0,1,0,18Z"/><path class="cls-2" d="M570.5,407.5a8.84,8.84,0,0,1-3.44-.69,9,9,0,0,1-5.56-8.31V333a9,9,0,0,1,9-9H636a9,9,0,0,1,6.36,15.36l-65.5,65.5A9,9,0,0,1,570.5,407.5Zm9-65.5v34.77L614.27,342Z"/><path class="cls-2" d="M636,117H573a9,9,0,0,1,0-18h63a9,9,0,0,1,0,18Z"/><path class="cls-2" d="M342,83a9,9,0,0,1-8.6-6.35l-25-81.2a9,9,0,0,1,6-11.24h0a9,9,0,0,1,11.24,6v0l25,81.2a9,9,0,0,1-6,11.22A9.35,9.35,0,0,1,342,83Z"/><path class="cls-2" d="M51.94,28a9,9,0,0,1-8.5-6L27.5-24A9,9,0,0,1,33-35.48l.06,0A9,9,0,0,1,44.5-29.95l16,46A9,9,0,0,1,55,27.54a9.12,9.12,0,0,1-3,.51Z"/><path class="cls-2" d="M442.48,33a9,9,0,0,1-8.62-11.61l17-56a9,9,0,0,1,11.22-6h0a9,9,0,0,1,6,11.22l-17,56A9,9,0,0,1,442.48,33Z"/><path class="cls-2" d="M51.94,628a9,9,0,0,1-8.5-6L27.5,576a9,9,0,0,1,16.86-6.31c0,.13.1.27.14.41l16,46A9,9,0,0,1,55,627.59a9.12,9.12,0,0,1-3,.51Z"/><path class="cls-2" d="M442.48,633a9,9,0,0,1-8.62-11.61l17-56a9,9,0,0,1,17.23,5.22l-17,56A9,9,0,0,1,442.48,633Z"/><path class="cls-2" d="M500.7,158.68a9.06,9.06,0,0,1-4.46-1.17L439.32,125.1A9,9,0,0,1,436,112.83l32.4-56.92A9,9,0,0,1,484.85,58l24.53,89.32a9,9,0,0,1-6.3,11.06,9.16,9.16,0,0,1-2.38.32Zm-44.65-44.77,30.22,17.2-13-47.42Z"/><path class="cls-2" d="M291.35,447.81a9,9,0,0,1-8.6-6.36l-18.54-60.21a9,9,0,0,1,17.08-5.69l.12.4L300,436.16a9,9,0,0,1-5.95,11.25,8.82,8.82,0,0,1-2.65.4Z"/><path class="cls-2" d="M154.2,366.74a8.37,8.37,0,0,1-1-.05L95,360.41a9,9,0,0,1,2-17.9h0l58.19,6.28a9,9,0,0,1-1,17.95Z"/><path class="cls-2" d="M361.1,239.8a8.37,8.37,0,0,1-1-.05l-58.19-6.28a9,9,0,1,1,1.93-17.9h0L362,221.86a9,9,0,0,1-1,17.94Z"/><path class="cls-2" d="M515.35,525.84a9.25,9.25,0,0,1-1.74-.17L449.34,513a9,9,0,0,1-3.27-16.3L523,445.1a9,9,0,0,1,13.85,9.21l-12.66,64.27a9,9,0,0,1-8.83,7.26Zm-41.21-26.29,34.12,6.72L515,472.15Z"/><path class="cls-2" d="M97.2,176.5A38.75,38.75,0,1,1,136,137.75,38.75,38.75,0,0,1,97.2,176.5Zm0-59.5A20.75,20.75,0,1,0,118,137.75,20.75,20.75,0,0,0,97.2,117Z"/><path class="cls-2" d="M112.29,536.74a9,9,0,0,1-6.36-15.36l51.62-51.62a9,9,0,0,1,12.73,0h0l45.32,45.32a9,9,0,0,1-5.78,15.35l-96.94,6.29Zm51.62-47.89-28.36,28.36,53.27-3.46Z"/><path class="cls-3" d="M-45,225a9,9,0,0,1-8.2-5.29,9,9,0,0,1,1.84-10.07L.25,158A9,9,0,0,1,13,158l0,0,45.33,45.32a9,9,0,0,1-5.78,15.35l-97,6.33ZM6.62,177.11l-28.36,28.36L31.52,202Z"/><path class="cls-3" d="M45,549a9,9,0,0,1-3.55-.73l-63-27a9,9,0,0,1-4.72-11.81,9,9,0,0,1,11.82-4.73h0l63,27A9,9,0,0,1,45,549Z"/><path class="cls-3" d="M555,225a9,9,0,0,1-6.36-15.36L600.25,158A9,9,0,0,1,613,158l0,0,45.33,45.32a9,9,0,0,1-5.78,15.35l-97,6.33Zm51.62-47.89-28.36,28.36L631.52,202Z"/><path class="cls-3" d="M645,549a9,9,0,0,1-3.54-.73l-63-27A9,9,0,0,1,585,504.51l.5.22,63,27A9,9,0,0,1,645,549Z"/><path class="cls-3" d="M356,360.45H291.9a9,9,0,0,1-6.77-14.94l64.1-73A9,9,0,0,1,365,278.45v73A9,9,0,0,1,356,360.45Zm-44.22-18H347V302.34Z"/><path class="cls-3" d="M209,54a9,9,0,0,1-9-9V-32a9,9,0,0,1,9-9,9,9,0,0,1,9,9V45A9,9,0,0,1,209,54Z"/><path class="cls-3" d="M516.13,63a9,9,0,0,1-8.8-7.15l-20-95.08a9,9,0,0,1,7-10.65h0a9,9,0,0,1,10.65,7v0L525,52.2a9,9,0,0,1-7,10.65h0A8.3,8.3,0,0,1,516.13,63Z"/><path class="cls-3" d="M209,654a9,9,0,0,1-9-9V568a9,9,0,0,1,18,0v77A9,9,0,0,1,209,654Z"/><path class="cls-3" d="M516.13,663a9,9,0,0,1-8.8-7.15l-20-95.08a9,9,0,1,1,17.62-3.7l20,95.08a9,9,0,0,1-7,10.65h0A9.31,9.31,0,0,1,516.13,663Z"/><path class="cls-3" d="M192.26,243a9,9,0,0,1-3.54-.73l-63-27a9,9,0,0,1,6.72-16.7l.37.16,63,27A9,9,0,0,1,192.26,243Z"/><path class="cls-3" d="M283.42,509.26a9,9,0,0,1-7.35-3.78l-61.24-86.16a9,9,0,0,1,14.67-10.43l61.24,86.16a9,9,0,0,1-7.32,14.21Z"/><path class="cls-3" d="M400.15,214.22a9,9,0,0,1-4.43-1.17L342.67,183a9,9,0,0,1,8.88-15.66l53,30.06a9,9,0,0,1-4.44,16.83Z"/><path class="cls-3" d="M92.54,462a38.75,38.75,0,1,1,38.75-38.75A38.75,38.75,0,0,1,92.54,462Zm0-59.5a20.75,20.75,0,1,0,20.75,20.75h0a20.78,20.78,0,0,0-20.75-20.76Z"/><path class="cls-3" d="M459.79,424.63a38.75,38.75,0,1,1,38.75-38.75h0A38.8,38.8,0,0,1,459.79,424.63Zm0-59.5a20.75,20.75,0,1,0,20.75,20.75h0A20.79,20.79,0,0,0,459.79,365.13Z"/><path class="cls-4" d="M97.2,45a8.84,8.84,0,0,1-3.44-.69A9,9,0,0,1,88.2,36V-19.8a9,9,0,0,1,9-9H153a9,9,0,0,1,8.31,5.56,9,9,0,0,1-1.95,9.8l-55.8,55.8A9,9,0,0,1,97.2,45Zm9-55.8V14.27L131.27-10.8Z"/><path class="cls-4" d="M36,288a9,9,0,0,1-3.16-.57l-72-27a9,9,0,0,1-5.27-11.58h0a9,9,0,0,1,11.58-5.27h0l72,27A9,9,0,0,1,36,288Z"/><path class="cls-4" d="M636,288a9,9,0,0,1-3.16-.57l-72-27a9,9,0,0,1,6.32-16.86l72,27A9,9,0,0,1,636,288Z"/><path class="cls-4" d="M245.63,36.19a9,9,0,0,1-6.37-15.37l54.38-54.37a9,9,0,0,1,12.72,0,9,9,0,0,1,0,12.73h0L252,33.55A9,9,0,0,1,245.63,36.19Z"/><path class="cls-4" d="M97.2,645a8.84,8.84,0,0,1-3.44-.69A9,9,0,0,1,88.2,636V580.2a9,9,0,0,1,9-9H153a9,9,0,0,1,6.36,15.36l-55.8,55.8A9,9,0,0,1,97.2,645Zm9-55.8v25.07l25.07-25.07Z"/><path class="cls-4" d="M245.63,636.19a9,9,0,0,1-6.37-15.37l54.38-54.37a9,9,0,0,1,12.72,12.73L252,633.55A9,9,0,0,1,245.63,636.19Z"/><path class="cls-4" d="M192.7,337.37a9,9,0,0,1-7-3.33l-48.41-59.75a9,9,0,1,1,14-11.33l48.41,59.75a9,9,0,0,1-7,14.66Z"/><path class="cls-4" d="M286,185.87a9,9,0,0,1-6.37-15.36L334,116.13a9,9,0,0,1,12.73,12.73l-54.38,54.38A9,9,0,0,1,286,185.87Z"/><path class="cls-4" d="M423.83,555.29a9,9,0,0,1-7.81-4.5L377.57,484.2a9,9,0,1,1,15.59-9l38.45,66.59a9,9,0,0,1-7.78,13.5Z"/><path class="cls-5" d="M405,46.1a9,9,0,0,1-5.94-2.24l-73-64.1a9,9,0,0,1-2.48-9.93A9,9,0,0,1,332-36h73a9,9,0,0,1,9,9V37.1A9,9,0,0,1,405,46.1ZM355.89-18,396,17.22V-18Z"/><path class="cls-5" d="M-22.5,481.5a9,9,0,0,1-6.36-2.64,9,9,0,0,1,0-12.72l58.5-58.5a9,9,0,0,1,12.72,12.72l-58.5,58.5A9,9,0,0,1-22.5,481.5Z"/><path class="cls-5" d="M27,81a9,9,0,0,1-5.39-1.8l-72-54a9,9,0,0,1-1.8-12.6h0a9,9,0,0,1,12.6-1.8h0l72,54A9,9,0,0,1,27,81Z"/><path class="cls-5" d="M577.5,481.5a9,9,0,0,1-6.36-15.36l58.5-58.5a9,9,0,0,1,12.72,12.72l-58.5,58.5A9,9,0,0,1,577.5,481.5Z"/><path class="cls-5" d="M627,81a9,9,0,0,1-5.39-1.8l-72-54A9,9,0,0,1,560.4,10.79h0l72,54A9,9,0,0,1,627,81Z"/><path class="cls-5" d="M405,646.1a9,9,0,0,1-5.94-2.24l-73-64.1A9,9,0,0,1,332,564h73a9,9,0,0,1,9,9v64.1A9,9,0,0,1,405,646.1ZM355.89,582,396,617.22V582Z"/><path class="cls-5" d="M294.26,287.45h-.16L197,285.82A9,9,0,0,1,191.3,270L247,222.72a9,9,0,0,1,12.68,1l41.49,48.87a9,9,0,0,1-6.86,14.82Zm-73.1-19.22,53.37.89-22.79-26.85Z"/><path class="cls-5" d="M422.68,458a9,9,0,0,1-3.47-.69L346.39,427a9,9,0,0,1,.05-16.63l51.61-21.21A9,9,0,0,1,409.8,394L431,445.62A9,9,0,0,1,422.68,458Zm-49.3-39.33,32.72,13.66-9.53-23.19Z"/><path class="cls-5" d="M501.16,294.47H418.43a9,9,0,0,1,0-18h82.73a9,9,0,1,1,0,18Z"/><path class="cls-5" d="M177.17,132.33a9,9,0,0,1-8.27-5.44L136.1,50.94a9,9,0,1,1,16.53-7.13l32.8,76a9,9,0,0,1-8.26,12.57Z"/><path class="cls-5" d="M295.25,128.54a8.94,8.94,0,0,1-4.49-1.21L219.11,86a9,9,0,0,1,9-15.59l71.65,41.36a9,9,0,0,1-4.51,16.8Z"/><path class="cls-5" d="M160.77,432.66a9,9,0,0,1-6.37-15.36l58.5-58.5a9,9,0,1,1,13,12.45l-.27.27L167.13,430A9,9,0,0,1,160.77,432.66Z"/><path class="cls-5" d="M508.05,221.43a8.94,8.94,0,0,1-4.49-1.21l-71.65-41.37a9,9,0,0,1,9-15.58l71.65,41.36a9,9,0,0,1-4.51,16.8Z"/><path class="cls-5" d="M112.59,300.08a9,9,0,0,1-8.8-7.15l-13.28-63.2a9,9,0,1,1,17.62-3.7l13.28,63.2a9,9,0,0,1-7,10.66,8.9,8.9,0,0,1-1.86.19Z"/><path class="cls-6" d="M62.79,76.86a16.5,16.5,0,1,1,16.5-16.5h0A16.52,16.52,0,0,1,62.79,76.86Z"/><path class="cls-6" d="M397.09,349.5a16.5,16.5,0,1,1,16.5-16.5h0A16.52,16.52,0,0,1,397.09,349.5Z"/><path class="cls-6" d="M386.27,138a16.5,16.5,0,1,1,16.5-16.5A16.5,16.5,0,0,1,386.27,138Z"/><path class="cls-6" d="M62.79,516.27a9,9,0,0,1-6.36-2.64L45.57,502.77a9,9,0,0,1,0-12.72l10.86-10.86a9,9,0,0,1,12.73,0h0L80,490.05a9,9,0,0,1,0,12.72L69.16,513.63A9,9,0,0,1,62.79,516.27Z"/><path class="cls-6" d="M562.5,580.36a9,9,0,0,1-6.36-2.64l-10.86-10.86a9,9,0,0,1,0-12.72l10.86-10.86a9,9,0,0,1,12.72,0l10.86,10.86a9,9,0,0,1,0,12.72l-10.86,10.86A9,9,0,0,1,562.5,580.36Z"/><path class="cls-6" d="M281.63,72.48a9,9,0,0,1-5.67-2l-12-9.67a9,9,0,0,1-1.33-12.66h0l9.66-11.94A9,9,0,0,1,285,34.87h0l12,9.67a9,9,0,0,1,1.33,12.66h0l-9.67,11.93a9,9,0,0,1-6.05,3.29C282.25,72.46,281.94,72.48,281.63,72.48Z"/><path class="cls-6" d="M70.29,327a16.5,16.5,0,1,1,16.5-16.5h0A16.52,16.52,0,0,1,70.29,327Z"/><path class="cls-6" d="M443.77,257.8a16.5,16.5,0,1,1,16.5-16.5h0A16.52,16.52,0,0,1,443.77,257.8Z"/><path class="cls-6" d="M555,309.47A16.5,16.5,0,1,1,571.5,293v0A16.52,16.52,0,0,1,555,309.47Z"/><path class="cls-6" d="M209,187.83a16.5,16.5,0,1,1,16.5-16.5A16.5,16.5,0,0,1,209,187.83Z"/><path class="cls-6" d="M246.82,345.3a9,9,0,0,1-5.66-2l-11.94-9.66A9,9,0,0,1,227.89,321l9.67-12a9,9,0,0,1,12.66-1.33h0l11.93,9.66A9,9,0,0,1,263.49,330h0l-9.66,12a9,9,0,0,1-6.06,3.29C247.45,345.28,247.13,345.3,246.82,345.3Z"/><path class="cls-6" d="M533.21,118.8a9,9,0,0,1-5.67-2l-11.93-9.66a9,9,0,0,1-1.33-12.66h0L524,82.54a9,9,0,0,1,12.65-1.33l11.94,9.66a9,9,0,0,1,1.33,12.66h0l-9.67,11.93a9,9,0,0,1-6,3.29C533.84,118.78,533.52,118.8,533.21,118.8Z"/><path class="cls-6" d="M332,502a16.5,16.5,0,1,1,16.5-16.5h0A16.52,16.52,0,0,1,332,502Z"/><rect class="cls-1" x="-13.55" y="599.37" width="626.73" height="608.5"/><path class="cls-2" d="M-29.68,1007.28a9,9,0,0,1-3.44-.69,9,9,0,0,1-5.56-8.31v-65.5a9,9,0,0,1,9-9h65.5a9,9,0,0,1,6.36,15.36l-65.5,65.5A9.09,9.09,0,0,1-29.68,1007.28Zm9-65.5v34.77l34.77-34.77Z"/><path class="cls-2" d="M35.82,716.78h-63a9,9,0,0,1-9-9,9,9,0,0,1,9-9h63a9,9,0,1,1,0,18Z"/><path class="cls-2" d="M570.32,1007.28a9,9,0,0,1-9-9v-65.5a9,9,0,0,1,9-9h65.5a9,9,0,0,1,6.36,15.36l-65.5,65.5A9.09,9.09,0,0,1,570.32,1007.28Zm9-65.5v34.77l34.77-34.77Z"/><path class="cls-2" d="M635.82,716.78h-63a9,9,0,1,1,0-18h63a9,9,0,0,1,0,18Z"/><path class="cls-2" d="M341.82,682.78a9,9,0,0,1-8.6-6.35l-25-81.2a9,9,0,0,1,6-11.25h0a9,9,0,0,1,11.24,6v0l25,81.2a9,9,0,0,1-8.65,11.6Z"/><path class="cls-2" d="M51.76,627.78a9,9,0,0,1-8.5-6l-15.94-46a9,9,0,0,1,5.49-11.49h.06a9,9,0,0,1,11.45,5.55l16,46a9,9,0,0,1-5.49,11.48,9.13,9.13,0,0,1-3,.52Z"/><path class="cls-2" d="M442.3,632.78a9,9,0,0,1-8.62-11.61l17-56a9,9,0,0,1,11.22-6h0a9,9,0,0,1,6,11.22l-17,56A9,9,0,0,1,442.3,632.78Z"/><path class="cls-2" d="M51.76,1227.78a9,9,0,0,1-8.5-6l-15.94-46a9,9,0,0,1,16.86-6.32c0,.14.09.28.14.42l16,46a9,9,0,0,1-5.49,11.48,9.13,9.13,0,0,1-3,.52Z"/><path class="cls-2" d="M442.3,1232.78a9,9,0,0,1-8.62-11.61l17-56a9,9,0,1,1,17.23,5.22l-17,56A9,9,0,0,1,442.3,1232.78Z"/><path class="cls-2" d="M500.52,758.46a9.06,9.06,0,0,1-4.46-1.17l-56.92-32.41a9,9,0,0,1-3.32-12.27l32.4-56.92a9,9,0,0,1,16.45,2.09L509.2,747.1a9,9,0,0,1-6.3,11.06,9.16,9.16,0,0,1-2.38.32Zm-44.65-44.77,30.22,17.2-13-47.42Z"/><path class="cls-2" d="M291.17,1047.59a9,9,0,0,1-8.6-6.36L264,981a9,9,0,1,1,17.08-5.69l.12.4,18.59,60.21a9,9,0,0,1-5.95,11.25,9.15,9.15,0,0,1-2.65.4Z"/><path class="cls-2" d="M154,966.52c-.34,0-.67,0-1,0l-58.2-6.28a9,9,0,1,1,2-17.9h0L155,948.57a9,9,0,0,1-1,17.95Z"/><path class="cls-2" d="M360.92,839.58c-.34,0-.67,0-1-.05l-58.19-6.28a9,9,0,1,1,1.93-17.9h0l58.19,6.29a9,9,0,0,1-1,17.94Z"/><path class="cls-2" d="M515.17,1125.62a10.06,10.06,0,0,1-1.74-.17l-64.27-12.67a9,9,0,0,1-3.27-16.3l76.93-51.6a9,9,0,0,1,13.85,9.21L524,1118.36a9,9,0,0,1-8.83,7.26ZM474,1099.33l34.12,6.72,6.74-34.12Z"/><path class="cls-2" d="M97,776.28a38.75,38.75,0,1,1,38.8-38.75A38.75,38.75,0,0,1,97,776.28Zm0-59.5a20.75,20.75,0,1,0,20.8,20.75A20.74,20.74,0,0,0,97,716.78Z"/><path class="cls-2" d="M112.11,1136.52a9,9,0,0,1-6.36-15.36l51.62-51.62a9,9,0,0,1,12.73,0h0l45.32,45.32a9,9,0,0,1-5.78,15.35l-96.94,6.29Zm51.62-47.89L135.37,1117l53.27-3.46Z"/><path class="cls-3" d="M-45.18,824.78a9,9,0,0,1-8.2-5.29,9,9,0,0,1,1.84-10.07L.07,757.78a9,9,0,0,1,12.73,0l0,0L58.15,803.1a9,9,0,0,1-5.78,15.35l-97,6.33ZM6.44,776.89l-28.36,28.36,53.26-3.47Z"/><path class="cls-3" d="M44.82,1148.78a9,9,0,0,1-3.55-.73l-63-27a9,9,0,0,1-4.72-11.81,9,9,0,0,1,11.81-4.74h0l63,27a9,9,0,0,1-3.55,17.27Z"/><path class="cls-3" d="M554.82,824.78a9,9,0,0,1-6.36-15.36l51.61-51.64a9,9,0,0,1,12.73,0l0,0,45.33,45.32a9,9,0,0,1-5.78,15.35l-97,6.33Zm51.62-47.89-28.36,28.36,53.26-3.47Z"/><path class="cls-3" d="M644.82,1148.78a9,9,0,0,1-3.54-.73l-63-27a9,9,0,0,1,6.57-16.76l.51.22,63,27a9,9,0,0,1-3.54,17.27Z"/><path class="cls-3" d="M355.82,960.23h-64.1A9,9,0,0,1,285,945.29l64.1-73a9,9,0,0,1,15.77,5.94v73A9,9,0,0,1,355.82,960.23Zm-44.22-18h35.22V902.12Z"/><path class="cls-3" d="M208.82,653.78a9,9,0,0,1-9-9v-77a9,9,0,0,1,18,0v77A9,9,0,0,1,208.82,653.78Z"/><path class="cls-3" d="M516,662.78a9,9,0,0,1-8.8-7.15l-20-95.08a9,9,0,0,1,7-10.65h0a9,9,0,0,1,10.65,7v0l20,95.08a9,9,0,0,1-7,10.64h0A9.66,9.66,0,0,1,516,662.78Z"/><path class="cls-3" d="M208.82,1253.78a9,9,0,0,1-9-9v-77a9,9,0,0,1,18,0v77A9,9,0,0,1,208.82,1253.78Z"/><path class="cls-3" d="M516,1262.78a9,9,0,0,1-8.8-7.15l-20-95.08a9,9,0,1,1,17.62-3.7l20,95.08a9,9,0,0,1-7,10.64h0A10.14,10.14,0,0,1,516,1262.78Z"/><path class="cls-3" d="M192.08,842.78a9,9,0,0,1-3.54-.73l-63-27a9,9,0,1,1,6.72-16.7l.37.16,63,27a9,9,0,0,1-3.55,17.27Z"/><path class="cls-3" d="M283.24,1109a9,9,0,0,1-7.35-3.78l-61.24-86.16a9,9,0,0,1,14.67-10.43l61.24,86.16a9,9,0,0,1-7.32,14.21Z"/><path class="cls-3" d="M400,814a9,9,0,0,1-4.43-1.17l-53.05-30.05a9,9,0,1,1,8.88-15.66l53,30.06A9,9,0,0,1,399.93,814Z"/><path class="cls-3" d="M92.36,1061.78A38.75,38.75,0,1,1,131.11,1023,38.75,38.75,0,0,1,92.36,1061.78Zm0-59.5A20.75,20.75,0,1,0,113.11,1023h0a20.77,20.77,0,0,0-20.75-20.76Z"/><path class="cls-3" d="M459.61,1024.41a38.75,38.75,0,1,1,38.75-38.75h0A38.8,38.8,0,0,1,459.61,1024.41Zm0-59.5a20.75,20.75,0,1,0,20.75,20.75h0A20.78,20.78,0,0,0,459.61,964.91Z"/><path class="cls-4" d="M97,644.78a9,9,0,0,1-9-9V580a9,9,0,0,1,9-9h55.8a9,9,0,0,1,6.36,15.36l-55.8,55.8A9.09,9.09,0,0,1,97,644.78Zm9-55.8v25.07L131.09,589Z"/><path class="cls-4" d="M35.82,887.78a9.2,9.2,0,0,1-3.16-.57l-72-27a9,9,0,0,1-5.27-11.59h0A9,9,0,0,1-33,843.34h0l72,27a9,9,0,0,1-3.16,17.43Z"/><path class="cls-4" d="M635.82,887.78a9.2,9.2,0,0,1-3.16-.57l-72-27A9,9,0,1,1,567,843.35l72,27a9,9,0,0,1-3.16,17.43Z"/><path class="cls-4" d="M245.45,636a9,9,0,0,1-6.37-15.37l54.38-54.37A9,9,0,0,1,306.18,579h0l-54.36,54.37A9,9,0,0,1,245.45,636Z"/><path class="cls-4" d="M97,1244.78a9,9,0,0,1-9-9V1180a9,9,0,0,1,9-9h55.8a9,9,0,0,1,6.36,15.36l-55.8,55.8A9.09,9.09,0,0,1,97,1244.78Zm9-55.8v25.07L131.09,1189Z"/><path class="cls-4" d="M245.45,1236a9,9,0,0,1-6.37-15.37l54.38-54.37A9,9,0,0,1,306.18,1179l-54.36,54.37A9,9,0,0,1,245.45,1236Z"/><path class="cls-4" d="M192.52,937.15a9,9,0,0,1-7-3.33l-48.41-59.75a9,9,0,1,1,14-11.33l48.41,59.75a9,9,0,0,1-7,14.66Z"/><path class="cls-4" d="M285.82,785.65a9,9,0,0,1-6.37-15.36l54.37-54.38a9,9,0,0,1,12.73,12.73L292.17,783A9.05,9.05,0,0,1,285.82,785.65Z"/><path class="cls-4" d="M423.65,1155.07a9,9,0,0,1-7.81-4.5L377.39,1084a9,9,0,1,1,15.59-9l38.45,66.59a9,9,0,0,1-7.78,13.5Z"/><path class="cls-5" d="M404.82,645.88a9,9,0,0,1-5.94-2.24l-73-64.1a9,9,0,0,1,5.94-15.76h73a9,9,0,0,1,9,9v64.1A9,9,0,0,1,404.82,645.88Zm-49.11-64.1L395.82,617V581.78Z"/><path class="cls-5" d="M-22.68,1081.28a9.07,9.07,0,0,1-6.36-2.64,9,9,0,0,1,0-12.72l58.5-58.5a9,9,0,0,1,12.72,12.72l-58.5,58.5A9.09,9.09,0,0,1-22.68,1081.28Z"/><path class="cls-5" d="M26.82,680.78a9.07,9.07,0,0,1-5.39-1.8l-72-54a9,9,0,0,1-1.8-12.6h0a9,9,0,0,1,12.6-1.8h0l72,54a9,9,0,0,1-5.41,16.2Z"/><path class="cls-5" d="M577.32,1081.28a9,9,0,0,1-6.36-15.36l58.5-58.5a9,9,0,0,1,12.72,12.72l-58.5,58.5A9.09,9.09,0,0,1,577.32,1081.28Z"/><path class="cls-5" d="M626.82,680.78a9.07,9.07,0,0,1-5.39-1.8l-72-54a9,9,0,0,1,10.79-14.41h0l72,54a9,9,0,0,1-5.41,16.2Z"/><path class="cls-5" d="M404.82,1245.88a9,9,0,0,1-5.94-2.24l-73-64.1a9,9,0,0,1,5.94-15.76h73a9,9,0,0,1,9,9v64.1A9,9,0,0,1,404.82,1245.88Zm-49.11-64.1L395.82,1217v-35.22Z"/><path class="cls-5" d="M294.08,887.23h-.16l-97.1-1.63a9,9,0,0,1-5.7-15.82l55.7-47.28a9,9,0,0,1,12.68,1L301,872.37a9,9,0,0,1-6.86,14.82ZM221,868l53.37.89-22.79-26.85Z"/><path class="cls-5" d="M422.5,1057.78a9.18,9.18,0,0,1-3.47-.69l-72.82-30.31a9,9,0,0,1,.05-16.63l51.61-21.21a9,9,0,0,1,11.75,4.84l21.2,51.62a9,9,0,0,1-5,11.72A9.22,9.22,0,0,1,422.5,1057.78Zm-49.3-39.33,32.72,13.66-9.53-23.19Z"/><path class="cls-5" d="M501,894.25H418.25a9,9,0,0,1,0-18H501a9,9,0,0,1,0,18Z"/><path class="cls-5" d="M177,732.11a9,9,0,0,1-8.27-5.44l-32.8-75.95a9,9,0,1,1,16.53-7.13l32.8,76a9,9,0,0,1-4.69,11.83,9.13,9.13,0,0,1-3.57.74Z"/><path class="cls-5" d="M295.07,728.32a8.94,8.94,0,0,1-4.49-1.21l-71.65-41.33a9,9,0,1,1,9-15.59l71.65,41.36a9,9,0,0,1-4.51,16.8Z"/><path class="cls-5" d="M160.59,1032.44a9,9,0,0,1-6.37-15.36l58.5-58.5a9,9,0,0,1,13,12.44l-.27.28L167,1029.78A9,9,0,0,1,160.59,1032.44Z"/><path class="cls-5" d="M507.87,821.21a8.94,8.94,0,0,1-4.49-1.21l-71.65-41.37a9,9,0,0,1,9-15.58l71.65,41.36a9,9,0,0,1-4.51,16.8Z"/><path class="cls-5" d="M112.41,899.86a9,9,0,0,1-8.8-7.15l-13.28-63.2a9,9,0,1,1,17.62-3.7L121.23,889a9,9,0,0,1-8.82,10.85Z"/><path class="cls-6" d="M62.61,676.64a16.5,16.5,0,1,1,16.5-16.5h0A16.53,16.53,0,0,1,62.61,676.64Z"/><path class="cls-6" d="M396.91,949.28a16.5,16.5,0,1,1,16.5-16.5h0A16.53,16.53,0,0,1,396.91,949.28Z"/><path class="cls-6" d="M386.09,737.78a16.5,16.5,0,1,1,16.5-16.5A16.5,16.5,0,0,1,386.09,737.78Z"/><path class="cls-6" d="M62.61,1116.05a9.07,9.07,0,0,1-6.36-2.64l-10.86-10.86a9,9,0,0,1,0-12.72L56.25,1079A9,9,0,0,1,69,1079h0l10.84,10.86a9,9,0,0,1,0,12.72L69,1113.41A9,9,0,0,1,62.61,1116.05Z"/><path class="cls-6" d="M562.32,1180.14a9.07,9.07,0,0,1-6.36-2.64l-10.86-10.86a9,9,0,0,1,0-12.72L556,1143.06a9,9,0,0,1,12.72,0l10.86,10.86a9,9,0,0,1,0,12.72l-10.86,10.86A9.09,9.09,0,0,1,562.32,1180.14Z"/><path class="cls-6" d="M281.45,672.26a9.06,9.06,0,0,1-5.67-2l-12-9.67a9,9,0,0,1-1.33-12.66h0L272.15,636a9,9,0,0,1,12.66-1.34h0l12,9.67A9,9,0,0,1,298.15,657h0l-9.67,11.93a9.06,9.06,0,0,1-6.05,3.29C282.07,672.24,281.76,672.26,281.45,672.26Z"/><path class="cls-6" d="M70.11,926.78a16.5,16.5,0,1,1,16.5-16.5h0A16.53,16.53,0,0,1,70.11,926.78Z"/><path class="cls-6" d="M443.59,857.58a16.5,16.5,0,1,1,16.5-16.5h0A16.53,16.53,0,0,1,443.59,857.58Z"/><path class="cls-6" d="M554.82,909.25a16.5,16.5,0,1,1,16.5-16.5v0A16.53,16.53,0,0,1,554.82,909.25Z"/><path class="cls-6" d="M208.82,787.61a16.5,16.5,0,1,1,16.5-16.5A16.5,16.5,0,0,1,208.82,787.61Z"/><path class="cls-6" d="M246.64,945.08a9,9,0,0,1-5.66-2L229,933.42a9,9,0,0,1-1.33-12.64l9.67-12A9,9,0,0,1,250,907.44h0L262,917.11a9,9,0,0,1,1.34,12.65v0l-9.66,12a9,9,0,0,1-6.06,3.29C247.27,945.06,247,945.08,246.64,945.08Z"/><path class="cls-6" d="M533,718.58a9.06,9.06,0,0,1-5.67-2l-11.93-9.66a9,9,0,0,1-1.33-12.66h0l9.72-11.94A9,9,0,0,1,536.47,681l11.94,9.66a9,9,0,0,1,1.33,12.65h0l-9.67,11.93a9.06,9.06,0,0,1-6.05,3.29C533.66,718.56,533.34,718.58,533,718.58Z"/><path class="cls-6" d="M331.82,1101.78a16.5,16.5,0,1,1,16.5-16.5h0A16.53,16.53,0,0,1,331.82,1101.78Z"/></svg>