<?xml version="1.0" encoding="utf-8"?>
<!-- Generator: Adobe Illustrator 22.1.0, SVG Export Plug-In . SVG Version: 6.00 Build 0)  -->
<svg version="1.1" id="Layer_1" xmlns="http://www.w3.org/2000/svg" xmlns:xlink="http://www.w3.org/1999/xlink" x="0px" y="0px"
	 viewBox="0 0 600 600" style="enable-background:new 0 0 600 600;" xml:space="preserve">
<style type="text/css">
	.st0{fill:none;stroke:#EE5A24;stroke-miterlimit:10;}
	.st1{fill:none;stroke:#FFC312;stroke-miterlimit:10;}
	.st2{fill:none;stroke:#FDA7DF;stroke-miterlimit:10;}
	.st3{fill:none;stroke:#12CBC4;stroke-miterlimit:10;}
	.st4{fill:none;stroke:#FFFFFF;stroke-miterlimit:10;}
</style>
<title>Artboard 1</title>
<path class="st0" d="M342,83c-3.9,0-7.4-2.6-8.6-6.3l-25-81.2c-1.5-4.8,1.2-9.8,6-11.2c0,0,0,0,0,0c4.8-1.5,9.8,1.2,11.2,6
	c0,0,0,0,0,0l25,81.2c1.4,4.8-1.3,9.8-6,11.2C343.8,82.9,342.9,83,342,83z"/>
<path class="st0" d="M51.9,28c-3.8,0-7.2-2.4-8.5-6L27.5-24c-1.7-4.7,0.8-9.8,5.5-11.5c0,0,0,0,0.1,0c4.7-1.6,9.8,0.9,11.5,5.5
	l16,46c1.7,4.7-0.8,9.8-5.5,11.5C54,27.9,53,28.1,51.9,28L51.9,28z"/>
<path class="st0" d="M442.5,33c-0.9,0-1.8-0.1-2.6-0.4c-4.8-1.4-7.4-6.5-6-11.2l17-56c1.4-4.8,6.5-7.4,11.2-6c0,0,0,0,0,0
	c4.8,1.4,7.4,6.5,6,11.2l-17,56C449.9,30.4,446.4,33,442.5,33z"/>
<path class="st0" d="M500.7,158.7c-1.6,0-3.1-0.4-4.5-1.2l-56.9-32.4c-4.3-2.5-5.8-8-3.3-12.3l32.4-56.9c2.5-4.3,8-5.8,12.3-3.3
	c2,1.2,3.5,3.1,4.1,5.4l24.5,89.3c1.3,4.8-1.5,9.7-6.3,11.1C502.3,158.6,501.5,158.7,500.7,158.7L500.7,158.7z M456.1,113.9
	l30.2,17.2l-13-47.4L456.1,113.9z"/>
<path class="st0" d="M291.4,447.8c-4,0-7.4-2.6-8.6-6.4l-18.5-60.2c-1.6-4.7,1-9.8,5.7-11.4c4.7-1.6,9.8,1,11.4,5.7
	c0,0.1,0.1,0.3,0.1,0.4l18.6,60.2c1.5,4.8-1.2,9.8-6,11.3C293.2,447.7,292.3,447.8,291.4,447.8L291.4,447.8z"/>
<path class="st0" d="M154.2,366.7c-0.3,0-0.7,0-1,0L95,360.4c-4.9-0.6-8.5-5-7.9-10c0.6-4.9,5-8.5,9.9-7.9l0,0l58.2,6.3
	c4.9,0.5,8.5,5,8,9.9C162.7,363.3,158.8,366.8,154.2,366.7L154.2,366.7z"/>
<path class="st0" d="M361.1,239.8c-0.3,0-0.7,0-1-0.1l-58.2-6.3c-4.9-0.5-8.5-5-8-9.9c0.5-4.9,5-8.5,9.9-8l0,0l58.2,6.3
	c4.9,0.6,8.5,5,7.9,10C369.4,236.4,365.6,239.8,361.1,239.8L361.1,239.8z"/>
<path class="st0" d="M515.3,525.8c-0.6,0-1.2-0.1-1.7-0.2L449.3,513c-4.9-1-8-5.7-7.1-10.6c0.5-2.3,1.8-4.4,3.8-5.7l76.9-51.6
	c4.1-2.8,9.7-1.7,12.5,2.5c1.3,2,1.8,4.4,1.4,6.8l-12.7,64.3C523.4,522.8,519.7,525.8,515.3,525.8L515.3,525.8z M474.1,499.6
	l34.1,6.7l6.7-34.1L474.1,499.6z"/>
<path class="st0" d="M97.2,176.5c-21.4,0-38.7-17.4-38.7-38.8c0-21.4,17.4-38.7,38.8-38.7c21.4,0,38.7,17.4,38.7,38.7
	C136,159.2,118.6,176.5,97.2,176.5z M97.2,117c-11.5,0-20.7,9.3-20.7,20.8s9.3,20.7,20.8,20.7c11.4,0,20.7-9.3,20.7-20.7
	C118,126.3,108.7,117,97.2,117z"/>
<path class="st0" d="M112.3,536.7c-5,0-9-4-9-9c0-2.4,0.9-4.7,2.6-6.4l51.6-51.6c3.5-3.5,9.2-3.5,12.7,0c0,0,0,0,0,0l45.3,45.3
	c3.5,3.5,3.5,9.2,0,12.7c-1.5,1.5-3.6,2.5-5.8,2.6l-96.9,6.3L112.3,536.7z M163.9,488.8l-28.4,28.4l53.3-3.5L163.9,488.8z"/>
<path class="st1" d="M356,360.5h-64.1c-5,0-9-4-9-9c0-2.2,0.8-4.3,2.2-5.9l64.1-73c3.3-3.7,9-4.1,12.7-0.8c2,1.7,3.1,4.2,3.1,6.8v73
	C365,356.4,361,360.5,356,360.5z M311.8,342.5H347v-40.1L311.8,342.5z"/>
<path class="st1" d="M209,54c-5,0-9-4-9-9v-77c0-5,4-9,9-9s9,4,9,9v77C218,50,214,54,209,54z"/>
<path class="st1" d="M516.1,63c-4.3,0-7.9-3-8.8-7.2l-20-95.1c-1-4.9,2.1-9.6,7-10.6c0,0,0,0,0,0c4.9-1,9.6,2.1,10.7,7c0,0,0,0,0,0
	l20,95.1c1,4.9-2.1,9.6-7,10.6c0,0,0,0,0,0C517.4,63,516.8,63,516.1,63z"/>
<path class="st1" d="M192.3,243c-1.2,0-2.4-0.2-3.5-0.7l-63-27c-4.6-1.9-6.8-7.1-5-11.7c1.9-4.6,7.1-6.8,11.7-5
	c0.1,0,0.2,0.1,0.4,0.2l63,27c4.6,2,6.7,7.3,4.7,11.8C199.1,240.9,195.9,243,192.3,243z"/>
<path class="st1" d="M283.4,509.3c-2.9,0-5.7-1.4-7.4-3.8l-61.2-86.2c-2.9-4.1-1.9-9.7,2.2-12.5c4-2.8,9.6-1.9,12.5,2.1l61.2,86.2
	c2.9,4.1,1.9,9.7-2.1,12.5C287.1,508.7,285.3,509.3,283.4,509.3L283.4,509.3z"/>
<path class="st1" d="M400.1,214.2c-1.6,0-3.1-0.4-4.4-1.2l-53-30.1c-4.3-2.5-5.8-7.9-3.4-12.3c2.5-4.3,7.9-5.8,12.3-3.4l53,30.1
	c4.3,2.5,5.8,7.9,3.4,12.3C406.3,212.5,403.4,214.2,400.1,214.2L400.1,214.2z"/>
<path class="st1" d="M92.5,462c-21.4,0-38.7-17.3-38.7-38.8s17.3-38.8,38.8-38.8s38.7,17.3,38.7,38.8
	C131.3,444.6,113.9,462,92.5,462z M92.5,402.5c-11.5,0-20.8,9.3-20.8,20.8S81.1,444,92.5,444s20.8-9.3,20.8-20.8l0,0
	C113.3,411.8,104,402.5,92.5,402.5L92.5,402.5z"/>
<path class="st1" d="M459.8,424.6c-21.4,0-38.8-17.3-38.8-38.8s17.3-38.8,38.8-38.8s38.8,17.3,38.8,38.8l0,0
	C498.5,407.3,481.2,424.6,459.8,424.6z M459.8,365.1c-11.5,0-20.8,9.3-20.8,20.8s9.3,20.8,20.8,20.8s20.8-9.3,20.8-20.8l0,0
	C480.5,374.4,471.2,365.1,459.8,365.1z"/>
<path class="st2" d="M97.2,45c-1.2,0-2.4-0.2-3.4-0.7c-3.4-1.4-5.6-4.7-5.6-8.3v-55.8c0-5,4-9,9-9H153c3.6,0,6.9,2.2,8.3,5.6
	c1.4,3.4,0.6,7.2-1.9,9.8l-55.8,55.8C101.9,44,99.6,45,97.2,45z M106.2-10.8v25.1l25.1-25.1L106.2-10.8z"/>
<path class="st2" d="M245.6,36.2c-5,0-9-4-9-9c0-2.4,0.9-4.7,2.6-6.4l54.4-54.4c3.5-3.5,9.2-3.5,12.7,0c3.5,3.5,3.5,9.2,0,12.7
	c0,0,0,0,0,0L252,33.5C250.3,35.2,248,36.2,245.6,36.2z"/>
<path class="st2" d="M192.7,337.4c-2.7,0-5.3-1.2-7-3.3l-48.4-59.8c-3.1-3.9-2.5-9.5,1.3-12.7c3.9-3.1,9.5-2.5,12.7,1.3l48.4,59.8
	c3.1,3.9,2.5,9.5-1.3,12.7C196.8,336.7,194.8,337.4,192.7,337.4L192.7,337.4z"/>
<path class="st2" d="M286,185.9c-5,0-9-4-9-9c0-2.4,0.9-4.7,2.6-6.4l54.4-54.4c3.5-3.5,9.2-3.5,12.7,0c3.5,3.5,3.5,9.2,0,12.7
	l-54.4,54.4C290.7,184.9,288.4,185.9,286,185.9z"/>
<path class="st2" d="M423.8,555.3c-3.2,0-6.2-1.7-7.8-4.5l-38.4-66.6c-2.5-4.3-1-9.8,3.3-12.3c4.3-2.5,9.8-1,12.3,3.3l38.5,66.6
	c2.5,4.3,1,9.8-3.3,12.3C427,554.9,425.4,555.3,423.8,555.3L423.8,555.3z"/>
<path class="st3" d="M405,46.1c-2.2,0-4.3-0.8-5.9-2.2l-73-64.1c-2.8-2.5-3.8-6.4-2.5-9.9c1.3-3.5,4.7-5.8,8.4-5.8h73c5,0,9,4,9,9
	v64.1C414,42.1,410,46.1,405,46.1z M355.9-18L396,17.2V-18H355.9z"/>
<path class="st3" d="M294.3,287.5h-0.2l-97.1-1.6c-5-0.1-8.9-4.2-8.8-9.2c0-2.6,1.2-5,3.1-6.7l55.7-47.3c3.8-3.2,9.5-2.8,12.7,1
	l41.5,48.9c3.2,3.8,2.7,9.5-1,12.7C298.5,286.7,296.4,287.4,294.3,287.5L294.3,287.5z M221.2,268.2l53.4,0.9l-22.8-26.9L221.2,268.2
	z"/>
<path class="st3" d="M422.7,458c-1.2,0-2.4-0.2-3.5-0.7L346.4,427c-4.6-1.9-6.8-7.2-4.8-11.8c0.9-2.2,2.7-3.9,4.9-4.9l51.6-21.2
	c4.6-1.9,9.8,0.3,11.8,4.8l21.2,51.6c1.9,4.6-0.4,9.9-5,11.7C425,457.8,423.8,458,422.7,458z M373.4,418.7l32.7,13.7l-9.5-23.2
	L373.4,418.7z"/>
<path class="st3" d="M501.2,294.5h-82.7c-5,0-9-4-9-9s4-9,9-9h82.7c5,0,9,4,9,9S506.1,294.5,501.2,294.5z"/>
<path class="st3" d="M177.2,132.3c-3.6,0-6.8-2.1-8.3-5.4l-32.8-75.9c-2-4.6,0.1-9.9,4.7-11.8c4.6-2,9.9,0.1,11.8,4.7l32.8,76
	c2,4.6-0.1,9.9-4.7,11.8C179.6,132.1,178.4,132.4,177.2,132.3L177.2,132.3z"/>
<path class="st3" d="M295.2,128.5c-1.6,0-3.1-0.4-4.5-1.2L219.1,86c-4.3-2.5-5.8-8-3.3-12.3s8-5.8,12.3-3.3l71.7,41.4
	c4.3,2.5,5.8,8,3.3,12.3C301.5,126.9,298.5,128.6,295.2,128.5L295.2,128.5z"/>
<path class="st3" d="M160.8,432.7c-5,0-9-4-9-9c0-2.4,0.9-4.7,2.6-6.4l58.5-58.5c3.4-3.6,9.1-3.7,12.7-0.3c3.6,3.4,3.7,9.1,0.3,12.7
	c-0.1,0.1-0.2,0.2-0.3,0.3L167.1,430C165.4,431.7,163.2,432.7,160.8,432.7z"/>
<path class="st3" d="M508,221.4c-1.6,0-3.1-0.4-4.5-1.2l-71.6-41.4c-4.2-2.6-5.5-8.2-2.9-12.4c2.5-4.1,7.7-5.5,11.9-3.2l71.6,41.4
	c4.3,2.5,5.8,8,3.3,12.3C514.3,219.7,511.3,221.4,508,221.4z"/>
<path class="st3" d="M112.6,300.1c-4.3,0-7.9-3-8.8-7.1l-13.3-63.2c-1-4.9,2.1-9.6,7-10.7c4.9-1,9.6,2.1,10.7,7l13.3,63.2
	c1,4.9-2.1,9.6-7,10.7C113.8,300,113.2,300.1,112.6,300.1L112.6,300.1z"/>
<path class="st4" d="M62.8,76.9c-9.1,0-16.5-7.4-16.5-16.5s7.4-16.5,16.5-16.5s16.5,7.4,16.5,16.5l0,0
	C79.3,69.5,71.9,76.8,62.8,76.9z"/>
<path class="st4" d="M397.1,349.5c-9.1,0-16.5-7.4-16.5-16.5s7.4-16.5,16.5-16.5s16.5,7.4,16.5,16.5l0,0
	C413.6,342.1,406.2,349.5,397.1,349.5z"/>
<path class="st4" d="M386.3,138c-9.1,0-16.5-7.4-16.5-16.5s7.4-16.5,16.5-16.5s16.5,7.4,16.5,16.5C402.8,130.6,395.4,138,386.3,138z
	"/>
<path class="st4" d="M62.8,516.3c-2.4,0-4.7-1-6.4-2.6l-10.9-10.9c-3.5-3.5-3.5-9.2,0-12.7l10.9-10.9c3.5-3.5,9.2-3.5,12.7,0
	c0,0,0,0,0,0L80,490c3.5,3.5,3.5,9.2,0,12.7l-10.8,10.9C67.5,515.3,65.2,516.3,62.8,516.3z"/>
<path class="st4" d="M562.5,580.4c-2.4,0-4.7-1-6.4-2.6l-10.9-10.9c-3.5-3.5-3.5-9.2,0-12.7l10.9-10.9c3.5-3.5,9.2-3.5,12.7,0
	l10.9,10.9c3.5,3.5,3.5,9.2,0,12.7l-10.9,10.9C567.2,579.4,564.9,580.4,562.5,580.4z"/>
<path class="st4" d="M281.6,72.5c-2.1,0-4.1-0.7-5.7-2l-12-9.7c-3.9-3.1-4.5-8.8-1.3-12.7c0,0,0,0,0,0l9.7-11.9
	c3.1-3.9,8.8-4.5,12.7-1.3c0,0,0,0,0,0l12,9.7c3.9,3.1,4.5,8.8,1.3,12.7c0,0,0,0,0,0l-9.7,11.9c-1.5,1.9-3.7,3-6,3.3
	C282.2,72.5,281.9,72.5,281.6,72.5z"/>
<path class="st4" d="M70.3,327c-9.1,0-16.5-7.4-16.5-16.5S61.2,294,70.3,294s16.5,7.4,16.5,16.5l0,0C86.8,319.6,79.4,327,70.3,327z"
	/>
<path class="st4" d="M443.8,257.8c-9.1,0-16.5-7.4-16.5-16.5s7.4-16.5,16.5-16.5s16.5,7.4,16.5,16.5l0,0
	C460.3,250.4,452.9,257.8,443.8,257.8z"/>
<path class="st4" d="M555,309.5c-9.1,0-16.5-7.4-16.5-16.5c0-9.1,7.4-16.5,16.5-16.5c9.1,0,16.5,7.4,16.5,16.5c0,0,0,0,0,0
	C571.5,302.1,564.1,309.5,555,309.5z"/>
<path class="st4" d="M209,187.8c-9.1,0-16.5-7.4-16.5-16.5s7.4-16.5,16.5-16.5s16.5,7.4,16.5,16.5
	C225.5,180.4,218.1,187.8,209,187.8z"/>
<path class="st4" d="M246.8,345.3c-2.1,0-4.1-0.7-5.7-2l-11.9-9.7c-3.9-3.1-4.4-8.8-1.3-12.6l9.7-12c3.1-3.9,8.8-4.5,12.7-1.3
	c0,0,0,0,0,0l11.9,9.7c3.9,3.1,4.5,8.8,1.3,12.7c0,0,0,0,0,0l-9.7,12c-1.5,1.9-3.7,3-6.1,3.3C247.4,345.3,247.1,345.3,246.8,345.3z"
	/>
<path class="st4" d="M533.2,118.8c-2.1,0-4.1-0.7-5.7-2l-11.9-9.7c-3.9-3.1-4.5-8.8-1.3-12.7c0,0,0,0,0,0l9.7-11.9
	c3.1-3.9,8.8-4.5,12.7-1.3l11.9,9.7c3.9,3.1,4.5,8.8,1.3,12.7c0,0,0,0,0,0l-9.7,11.9c-1.5,1.9-3.7,3-6,3.3
	C533.8,118.8,533.5,118.8,533.2,118.8z"/>
<path class="st4" d="M332,502c-9.1,0-16.5-7.4-16.5-16.5S322.9,469,332,469s16.5,7.4,16.5,16.5l0,0C348.5,494.6,341.1,502,332,502z"
	/>
</svg>
