<?xml version="1.0" encoding="utf-8"?>
<!-- Generator: Adobe Illustrator 22.1.0, SVG Export Plug-In . SVG Version: 6.00 Build 0)  -->
<svg version="1.1" id="Layer_1" xmlns="http://www.w3.org/2000/svg" xmlns:xlink="http://www.w3.org/1999/xlink" x="0px" y="0px"
	 viewBox="0 0 600 1201.5" style="enable-background:new 0 0 600 1201.5;" xml:space="preserve">
<style type="text/css">
	.st0{fill:#1B1464;}
	.st1{fill:none;stroke:#EE5A24;stroke-miterlimit:10;}
	.st2{fill:none;stroke:#FFC312;stroke-miterlimit:10;}
	.st3{fill:none;stroke:#FDA7DF;stroke-miterlimit:10;}
	.st4{fill:none;stroke:#12CBC4;stroke-miterlimit:10;}
	.st5{fill:none;stroke:#FFFFFF;stroke-miterlimit:10;}
</style>
<title>Artboard 1</title>
<rect x="-13.4" y="-6.8" class="st0" width="626.7" height="608.5"/>
<path class="st1" d="M-29.5,407.5c-1.2,0-2.4-0.2-3.4-0.7c-3.4-1.4-5.6-4.7-5.6-8.3V333c0-5,4-9,9-9H36c5,0,9,4,9,9
	c0,2.4-0.9,4.7-2.6,6.4l-65.5,65.5C-24.8,406.5-27.1,407.5-29.5,407.5z M-20.5,342v34.8L14.3,342H-20.5z"/>
<path class="st1" d="M36,117h-63c-5,0-9-4-9-9s4-9,9-9h63c5,0,9,4,9,9S41,117,36,117z"/>
<path class="st1" d="M570.5,407.5c-1.2,0-2.4-0.2-3.4-0.7c-3.4-1.4-5.6-4.7-5.6-8.3V333c0-5,4-9,9-9H636c5,0,9,4,9,9
	c0,2.4-0.9,4.7-2.6,6.4l-65.5,65.5C575.2,406.5,572.9,407.5,570.5,407.5z M579.5,342v34.8l34.8-34.8H579.5z"/>
<path class="st1" d="M636,117h-63c-5,0-9-4-9-9s4-9,9-9h63c5,0,9,4,9,9S641,117,636,117z"/>
<path class="st1" d="M342,83c-3.9,0-7.4-2.6-8.6-6.3l-25-81.2c-1.5-4.8,1.2-9.8,6-11.2c0,0,0,0,0,0c4.8-1.5,9.8,1.2,11.2,6
	c0,0,0,0,0,0l25,81.2c1.4,4.8-1.3,9.8-6,11.2C343.8,82.9,342.9,83,342,83z"/>
<path class="st1" d="M51.9,28c-3.8,0-7.2-2.4-8.5-6L27.5-24c-1.7-4.7,0.8-9.8,5.5-11.5c0,0,0,0,0.1,0c4.7-1.6,9.8,0.9,11.5,5.5
	l16,46c1.7,4.7-0.8,9.8-5.5,11.5C54,27.9,53,28.1,51.9,28L51.9,28z"/>
<path class="st1" d="M442.5,33c-0.9,0-1.8-0.1-2.6-0.4c-4.8-1.4-7.4-6.5-6-11.2l17-56c1.4-4.8,6.5-7.4,11.2-6c0,0,0,0,0,0
	c4.8,1.4,7.4,6.5,6,11.2l-17,56C449.9,30.4,446.4,33,442.5,33z"/>
<path class="st1" d="M51.9,628c-3.8,0-7.2-2.4-8.5-6l-15.9-46c-1.7-4.7,0.6-9.8,5.3-11.6s9.8,0.6,11.6,5.3c0.1,0.1,0.1,0.3,0.1,0.4
	l16,46c1.7,4.7-0.8,9.8-5.5,11.5C54,627.9,53,628.1,51.9,628L51.9,628z"/>
<path class="st1" d="M442.5,633c-0.9,0-1.8-0.1-2.6-0.4c-4.8-1.4-7.4-6.5-6-11.2l17-56c1.4-4.8,6.5-7.4,11.2-6
	c4.8,1.4,7.4,6.5,6,11.2l-17,56C449.9,630.4,446.4,633,442.5,633z"/>
<path class="st1" d="M500.7,158.7c-1.6,0-3.1-0.4-4.5-1.2l-56.9-32.4c-4.3-2.5-5.8-8-3.3-12.3l32.4-56.9c2.5-4.3,8-5.8,12.3-3.3
	c2,1.2,3.5,3.1,4.1,5.4l24.5,89.3c1.3,4.8-1.5,9.7-6.3,11.1C502.3,158.6,501.5,158.7,500.7,158.7L500.7,158.7z M456.1,113.9
	l30.2,17.2l-13-47.4L456.1,113.9z"/>
<path class="st1" d="M291.4,447.8c-4,0-7.4-2.6-8.6-6.4l-18.5-60.2c-1.6-4.7,1-9.8,5.7-11.4c4.7-1.6,9.8,1,11.4,5.7
	c0,0.1,0.1,0.3,0.1,0.4l18.6,60.2c1.5,4.8-1.2,9.8-6,11.3C293.2,447.7,292.3,447.8,291.4,447.8L291.4,447.8z"/>
<path class="st1" d="M154.2,366.7c-0.3,0-0.7,0-1,0L95,360.4c-4.9-0.6-8.5-5-7.9-10c0.6-4.9,5-8.5,9.9-7.9l0,0l58.2,6.3
	c4.9,0.5,8.5,5,8,9.9C162.7,363.3,158.8,366.8,154.2,366.7L154.2,366.7z"/>
<path class="st1" d="M361.1,239.8c-0.3,0-0.7,0-1-0.1l-58.2-6.3c-4.9-0.5-8.5-5-8-9.9c0.5-4.9,5-8.5,9.9-8l0,0l58.2,6.3
	c4.9,0.6,8.5,5,7.9,10C369.4,236.4,365.6,239.8,361.1,239.8L361.1,239.8z"/>
<path class="st1" d="M515.3,525.8c-0.6,0-1.2-0.1-1.7-0.2L449.3,513c-4.9-1-8-5.7-7.1-10.6c0.5-2.3,1.8-4.4,3.8-5.7l76.9-51.6
	c4.1-2.8,9.7-1.7,12.5,2.5c1.3,2,1.8,4.4,1.4,6.8l-12.7,64.3C523.4,522.8,519.7,525.8,515.3,525.8L515.3,525.8z M474.1,499.6
	l34.1,6.7l6.7-34.1L474.1,499.6z"/>
<path class="st1" d="M97.2,176.5c-21.4,0-38.7-17.4-38.7-38.8c0-21.4,17.4-38.7,38.8-38.7c21.4,0,38.7,17.4,38.7,38.7
	C136,159.2,118.6,176.5,97.2,176.5z M97.2,117c-11.5,0-20.7,9.3-20.7,20.8s9.3,20.7,20.8,20.7c11.4,0,20.7-9.3,20.7-20.7
	C118,126.3,108.7,117,97.2,117z"/>
<path class="st1" d="M112.3,536.7c-5,0-9-4-9-9c0-2.4,0.9-4.7,2.6-6.4l51.6-51.6c3.5-3.5,9.2-3.5,12.7,0c0,0,0,0,0,0l45.3,45.3
	c3.5,3.5,3.5,9.2,0,12.7c-1.5,1.5-3.6,2.5-5.8,2.6l-96.9,6.3L112.3,536.7z M163.9,488.8l-28.4,28.4l53.3-3.5L163.9,488.8z"/>
<path class="st2" d="M-45,225c-3.5,0-6.7-2.1-8.2-5.3c-1.5-3.4-0.8-7.4,1.8-10.1L0.2,158c3.5-3.5,9.2-3.5,12.7,0c0,0,0,0,0,0
	l45.3,45.3c3.5,3.5,3.5,9.2,0,12.7c-1.5,1.5-3.6,2.5-5.8,2.6l-97,6.3H-45z M6.6,177.1l-28.4,28.4l53.3-3.5L6.6,177.1z"/>
<path class="st2" d="M45,549c-1.2,0-2.4-0.2-3.5-0.7l-63-27c-4.6-2-6.7-7.2-4.7-11.8c2-4.6,7.2-6.7,11.8-4.7c0,0,0,0,0,0l63,27
	c4.6,2,6.7,7.3,4.7,11.8C51.8,546.9,48.6,549,45,549z"/>
<path class="st2" d="M555,225c-5,0-9-4-9-9c0-2.4,0.9-4.7,2.6-6.4l51.6-51.6c3.5-3.5,9.2-3.5,12.7,0c0,0,0,0,0,0l45.3,45.3
	c3.5,3.5,3.5,9.2,0,12.7c-1.5,1.5-3.6,2.5-5.8,2.6l-97,6.3H555z M606.6,177.1l-28.4,28.4l53.3-3.5L606.6,177.1z"/>
<path class="st2" d="M645,549c-1.2,0-2.4-0.2-3.5-0.7l-63-27c-4.6-1.8-6.9-7-5.1-11.7c1.8-4.6,7-6.9,11.7-5.1
	c0.2,0.1,0.3,0.1,0.5,0.2l63,27c4.6,2,6.7,7.3,4.7,11.8C651.8,546.9,648.6,549,645,549z"/>
<path class="st2" d="M356,360.5h-64.1c-5,0-9-4-9-9c0-2.2,0.8-4.3,2.2-5.9l64.1-73c3.3-3.7,9-4.1,12.7-0.8c2,1.7,3.1,4.2,3.1,6.8v73
	C365,356.4,361,360.5,356,360.5z M311.8,342.5H347v-40.1L311.8,342.5z"/>
<path class="st2" d="M209,54c-5,0-9-4-9-9v-77c0-5,4-9,9-9s9,4,9,9v77C218,50,214,54,209,54z"/>
<path class="st2" d="M516.1,63c-4.3,0-7.9-3-8.8-7.2l-20-95.1c-1-4.9,2.1-9.6,7-10.6c0,0,0,0,0,0c4.9-1,9.6,2.1,10.7,7c0,0,0,0,0,0
	l20,95.1c1,4.9-2.1,9.6-7,10.6c0,0,0,0,0,0C517.4,63,516.8,63,516.1,63z"/>
<path class="st2" d="M209,654c-5,0-9-4-9-9v-77c0-5,4-9,9-9s9,4,9,9v77C218,650,214,654,209,654z"/>
<path class="st2" d="M516.1,663c-4.3,0-7.9-3-8.8-7.2l-20-95.1c-1-4.9,2.1-9.6,7-10.7c4.9-1,9.6,2.1,10.7,7l20,95.1
	c1,4.9-2.1,9.6-7,10.6c0,0,0,0,0,0C517.4,662.9,516.7,663,516.1,663z"/>
<path class="st2" d="M192.3,243c-1.2,0-2.4-0.2-3.5-0.7l-63-27c-4.6-1.9-6.8-7.1-5-11.7c1.9-4.6,7.1-6.8,11.7-5
	c0.1,0,0.2,0.1,0.4,0.2l63,27c4.6,2,6.7,7.3,4.7,11.8C199.1,240.9,195.9,243,192.3,243z"/>
<path class="st2" d="M283.4,509.3c-2.9,0-5.7-1.4-7.4-3.8l-61.2-86.2c-2.9-4.1-1.9-9.7,2.2-12.5c4-2.8,9.6-1.9,12.5,2.1l61.2,86.2
	c2.9,4.1,1.9,9.7-2.1,12.5C287.1,508.7,285.3,509.3,283.4,509.3L283.4,509.3z"/>
<path class="st2" d="M400.1,214.2c-1.6,0-3.1-0.4-4.4-1.2l-53-30.1c-4.3-2.5-5.8-7.9-3.4-12.3c2.5-4.3,7.9-5.8,12.3-3.4l53,30.1
	c4.3,2.5,5.8,7.9,3.4,12.3C406.3,212.5,403.4,214.2,400.1,214.2L400.1,214.2z"/>
<path class="st2" d="M92.5,462c-21.4,0-38.7-17.3-38.7-38.8s17.3-38.8,38.8-38.8s38.7,17.3,38.7,38.8
	C131.3,444.6,113.9,462,92.5,462z M92.5,402.5c-11.5,0-20.8,9.3-20.8,20.8S81.1,444,92.5,444s20.8-9.3,20.8-20.8l0,0
	C113.3,411.8,104,402.5,92.5,402.5L92.5,402.5z"/>
<path class="st2" d="M459.8,424.6c-21.4,0-38.8-17.3-38.8-38.8s17.3-38.8,38.8-38.8s38.8,17.3,38.8,38.8l0,0
	C498.5,407.3,481.2,424.6,459.8,424.6z M459.8,365.1c-11.5,0-20.8,9.3-20.8,20.8s9.3,20.8,20.8,20.8s20.8-9.3,20.8-20.8l0,0
	C480.5,374.4,471.2,365.1,459.8,365.1z"/>
<path class="st3" d="M97.2,45c-1.2,0-2.4-0.2-3.4-0.7c-3.4-1.4-5.6-4.7-5.6-8.3v-55.8c0-5,4-9,9-9H153c3.6,0,6.9,2.2,8.3,5.6
	c1.4,3.4,0.6,7.2-1.9,9.8l-55.8,55.8C101.9,44,99.6,45,97.2,45z M106.2-10.8v25.1l25.1-25.1L106.2-10.8z"/>
<path class="st3" d="M36,288c-1.1,0-2.1-0.2-3.2-0.6l-72-27c-4.7-1.7-7-6.9-5.3-11.6c0,0,0,0,0,0c1.7-4.7,6.9-7,11.6-5.3
	c0,0,0,0,0,0l72,27c4.7,1.7,7,6.9,5.3,11.6C43.1,285.7,39.8,288,36,288z"/>
<path class="st3" d="M636,288c-1.1,0-2.1-0.2-3.2-0.6l-72-27c-4.7-1.7-7-6.9-5.3-11.6c1.7-4.7,6.9-7,11.6-5.3l72,27
	c4.7,1.7,7,6.9,5.3,11.6C643.1,285.7,639.8,288,636,288z"/>
<path class="st3" d="M245.6,36.2c-5,0-9-4-9-9c0-2.4,0.9-4.7,2.6-6.4l54.4-54.4c3.5-3.5,9.2-3.5,12.7,0c3.5,3.5,3.5,9.2,0,12.7
	c0,0,0,0,0,0L252,33.5C250.3,35.2,248,36.2,245.6,36.2z"/>
<path class="st3" d="M97.2,645c-1.2,0-2.4-0.2-3.4-0.7c-3.4-1.4-5.6-4.7-5.6-8.3v-55.8c0-5,4-9,9-9H153c5,0,9,4,9,9
	c0,2.4-0.9,4.7-2.6,6.4l-55.8,55.8C101.9,644,99.6,645,97.2,645z M106.2,589.2v25.1l25.1-25.1H106.2z"/>
<path class="st3" d="M245.6,636.2c-5,0-9-4-9-9c0-2.4,0.9-4.7,2.6-6.4l54.4-54.4c3.6-3.4,9.3-3.3,12.7,0.3c3.3,3.5,3.3,9,0,12.5
	L252,633.5C250.3,635.2,248,636.2,245.6,636.2z"/>
<path class="st3" d="M192.7,337.4c-2.7,0-5.3-1.2-7-3.3l-48.4-59.8c-3.1-3.9-2.5-9.5,1.3-12.7c3.9-3.1,9.5-2.5,12.7,1.3l48.4,59.8
	c3.1,3.9,2.5,9.5-1.3,12.7C196.8,336.7,194.8,337.4,192.7,337.4L192.7,337.4z"/>
<path class="st3" d="M286,185.9c-5,0-9-4-9-9c0-2.4,0.9-4.7,2.6-6.4l54.4-54.4c3.5-3.5,9.2-3.5,12.7,0c3.5,3.5,3.5,9.2,0,12.7
	l-54.4,54.4C290.7,184.9,288.4,185.9,286,185.9z"/>
<path class="st3" d="M423.8,555.3c-3.2,0-6.2-1.7-7.8-4.5l-38.4-66.6c-2.5-4.3-1-9.8,3.3-12.3c4.3-2.5,9.8-1,12.3,3.3l38.5,66.6
	c2.5,4.3,1,9.8-3.3,12.3C427,554.9,425.4,555.3,423.8,555.3L423.8,555.3z"/>
<path class="st4" d="M405,46.1c-2.2,0-4.3-0.8-5.9-2.2l-73-64.1c-2.8-2.5-3.8-6.4-2.5-9.9c1.3-3.5,4.7-5.8,8.4-5.8h73c5,0,9,4,9,9
	v64.1C414,42.1,410,46.1,405,46.1z M355.9-18L396,17.2V-18H355.9z"/>
<path class="st4" d="M-22.5,481.5c-2.4,0-4.7-1-6.4-2.6c-3.5-3.5-3.5-9.2,0-12.7l58.5-58.5c3.6-3.4,9.3-3.2,12.7,0.4
	c3.2,3.5,3.2,8.8,0,12.3l-58.5,58.5C-17.8,480.5-20.1,481.5-22.5,481.5z"/>
<path class="st4" d="M27,81c-1.9,0-3.8-0.6-5.4-1.8l-72-54c-4-3-4.8-8.6-1.8-12.6l0,0c3-4,8.6-4.8,12.6-1.8c0,0,0,0,0,0l72,54
	c4,3,4.8,8.6,1.8,12.6C32.5,79.7,29.8,81,27,81z"/>
<path class="st4" d="M577.5,481.5c-5,0-9-4-9-9c0-2.4,0.9-4.7,2.6-6.4l58.5-58.5c3.6-3.4,9.3-3.2,12.7,0.4c3.2,3.5,3.2,8.8,0,12.3
	l-58.5,58.5C582.2,480.5,579.9,481.5,577.5,481.5z"/>
<path class="st4" d="M627,81c-1.9,0-3.8-0.6-5.4-1.8l-72-54c-4-3-4.8-8.6-1.8-12.6c3-4,8.6-4.8,12.6-1.8c0,0,0,0,0,0l72,54
	c4,3,4.8,8.6,1.8,12.6C632.5,79.7,629.8,81,627,81z"/>
<path class="st4" d="M405,646.1c-2.2,0-4.3-0.8-5.9-2.2l-73-64.1c-3.7-3.3-4.1-9-0.8-12.7c1.7-1.9,4.2-3.1,6.8-3.1h73c5,0,9,4,9,9
	v64.1C414,642.1,410,646.1,405,646.1z M355.9,582l40.1,35.2V582H355.9z"/>
<path class="st4" d="M294.3,287.5h-0.2l-97.1-1.6c-5-0.1-8.9-4.2-8.8-9.2c0-2.6,1.2-5,3.1-6.7l55.7-47.3c3.8-3.2,9.5-2.8,12.7,1
	l41.5,48.9c3.2,3.8,2.7,9.5-1,12.7C298.5,286.7,296.4,287.4,294.3,287.5L294.3,287.5z M221.2,268.2l53.4,0.9l-22.8-26.9L221.2,268.2
	z"/>
<path class="st4" d="M422.7,458c-1.2,0-2.4-0.2-3.5-0.7L346.4,427c-4.6-1.9-6.8-7.2-4.8-11.8c0.9-2.2,2.7-3.9,4.9-4.9l51.6-21.2
	c4.6-1.9,9.8,0.3,11.8,4.8l21.2,51.6c1.9,4.6-0.4,9.9-5,11.7C425,457.8,423.8,458,422.7,458z M373.4,418.7l32.7,13.7l-9.5-23.2
	L373.4,418.7z"/>
<path class="st4" d="M501.2,294.5h-82.7c-5,0-9-4-9-9s4-9,9-9h82.7c5,0,9,4,9,9S506.1,294.5,501.2,294.5z"/>
<path class="st4" d="M177.2,132.3c-3.6,0-6.8-2.1-8.3-5.4l-32.8-75.9c-2-4.6,0.1-9.9,4.7-11.8c4.6-2,9.9,0.1,11.8,4.7l32.8,76
	c2,4.6-0.1,9.9-4.7,11.8C179.6,132.1,178.4,132.4,177.2,132.3L177.2,132.3z"/>
<path class="st4" d="M295.2,128.5c-1.6,0-3.1-0.4-4.5-1.2L219.1,86c-4.3-2.5-5.8-8-3.3-12.3s8-5.8,12.3-3.3l71.7,41.4
	c4.3,2.5,5.8,8,3.3,12.3C301.5,126.9,298.5,128.6,295.2,128.5L295.2,128.5z"/>
<path class="st4" d="M160.8,432.7c-5,0-9-4-9-9c0-2.4,0.9-4.7,2.6-6.4l58.5-58.5c3.4-3.6,9.1-3.7,12.7-0.3c3.6,3.4,3.7,9.1,0.3,12.7
	c-0.1,0.1-0.2,0.2-0.3,0.3L167.1,430C165.4,431.7,163.2,432.7,160.8,432.7z"/>
<path class="st4" d="M508,221.4c-1.6,0-3.1-0.4-4.5-1.2l-71.6-41.4c-4.2-2.6-5.5-8.2-2.9-12.4c2.5-4.1,7.7-5.5,11.9-3.2l71.6,41.4
	c4.3,2.5,5.8,8,3.3,12.3C514.3,219.7,511.3,221.4,508,221.4z"/>
<path class="st4" d="M112.6,300.1c-4.3,0-7.9-3-8.8-7.1l-13.3-63.2c-1-4.9,2.1-9.6,7-10.7c4.9-1,9.6,2.1,10.7,7l13.3,63.2
	c1,4.9-2.1,9.6-7,10.7C113.8,300,113.2,300.1,112.6,300.1L112.6,300.1z"/>
<path class="st5" d="M62.8,76.9c-9.1,0-16.5-7.4-16.5-16.5s7.4-16.5,16.5-16.5s16.5,7.4,16.5,16.5l0,0
	C79.3,69.5,71.9,76.8,62.8,76.9z"/>
<path class="st5" d="M397.1,349.5c-9.1,0-16.5-7.4-16.5-16.5s7.4-16.5,16.5-16.5s16.5,7.4,16.5,16.5l0,0
	C413.6,342.1,406.2,349.5,397.1,349.5z"/>
<path class="st5" d="M386.3,138c-9.1,0-16.5-7.4-16.5-16.5s7.4-16.5,16.5-16.5s16.5,7.4,16.5,16.5C402.8,130.6,395.4,138,386.3,138z
	"/>
<path class="st5" d="M62.8,516.3c-2.4,0-4.7-1-6.4-2.6l-10.9-10.9c-3.5-3.5-3.5-9.2,0-12.7l10.9-10.9c3.5-3.5,9.2-3.5,12.7,0
	c0,0,0,0,0,0L80,490c3.5,3.5,3.5,9.2,0,12.7l-10.8,10.9C67.5,515.3,65.2,516.3,62.8,516.3z"/>
<path class="st5" d="M562.5,580.4c-2.4,0-4.7-1-6.4-2.6l-10.9-10.9c-3.5-3.5-3.5-9.2,0-12.7l10.9-10.9c3.5-3.5,9.2-3.5,12.7,0
	l10.9,10.9c3.5,3.5,3.5,9.2,0,12.7l-10.9,10.9C567.2,579.4,564.9,580.4,562.5,580.4z"/>
<path class="st5" d="M281.6,72.5c-2.1,0-4.1-0.7-5.7-2l-12-9.7c-3.9-3.1-4.5-8.8-1.3-12.7c0,0,0,0,0,0l9.7-11.9
	c3.1-3.9,8.8-4.5,12.7-1.3c0,0,0,0,0,0l12,9.7c3.9,3.1,4.5,8.8,1.3,12.7c0,0,0,0,0,0l-9.7,11.9c-1.5,1.9-3.7,3-6,3.3
	C282.2,72.5,281.9,72.5,281.6,72.5z"/>
<path class="st5" d="M70.3,327c-9.1,0-16.5-7.4-16.5-16.5S61.2,294,70.3,294s16.5,7.4,16.5,16.5l0,0C86.8,319.6,79.4,327,70.3,327z"
	/>
<path class="st5" d="M443.8,257.8c-9.1,0-16.5-7.4-16.5-16.5s7.4-16.5,16.5-16.5s16.5,7.4,16.5,16.5l0,0
	C460.3,250.4,452.9,257.8,443.8,257.8z"/>
<path class="st5" d="M555,309.5c-9.1,0-16.5-7.4-16.5-16.5c0-9.1,7.4-16.5,16.5-16.5c9.1,0,16.5,7.4,16.5,16.5c0,0,0,0,0,0
	C571.5,302.1,564.1,309.5,555,309.5z"/>
<path class="st5" d="M209,187.8c-9.1,0-16.5-7.4-16.5-16.5s7.4-16.5,16.5-16.5s16.5,7.4,16.5,16.5
	C225.5,180.4,218.1,187.8,209,187.8z"/>
<path class="st5" d="M246.8,345.3c-2.1,0-4.1-0.7-5.7-2l-11.9-9.7c-3.9-3.1-4.4-8.8-1.3-12.6l9.7-12c3.1-3.9,8.8-4.5,12.7-1.3
	c0,0,0,0,0,0l11.9,9.7c3.9,3.1,4.5,8.8,1.3,12.7c0,0,0,0,0,0l-9.7,12c-1.5,1.9-3.7,3-6.1,3.3C247.4,345.3,247.1,345.3,246.8,345.3z"
	/>
<path class="st5" d="M533.2,118.8c-2.1,0-4.1-0.7-5.7-2l-11.9-9.7c-3.9-3.1-4.5-8.8-1.3-12.7c0,0,0,0,0,0l9.7-11.9
	c3.1-3.9,8.8-4.5,12.7-1.3l11.9,9.7c3.9,3.1,4.5,8.8,1.3,12.7c0,0,0,0,0,0l-9.7,11.9c-1.5,1.9-3.7,3-6,3.3
	C533.8,118.8,533.5,118.8,533.2,118.8z"/>
<path class="st5" d="M332,502c-9.1,0-16.5-7.4-16.5-16.5S322.9,469,332,469s16.5,7.4,16.5,16.5l0,0C348.5,494.6,341.1,502,332,502z"
	/>
<rect x="-13.5" y="599.4" class="st0" width="626.7" height="608.5"/>
<path class="st1" d="M-29.7,1007.3c-1.2,0-2.4-0.2-3.4-0.7c-3.4-1.4-5.6-4.7-5.6-8.3v-65.5c0-5,4-9,9-9h65.5c5,0,9,4,9,9
	c0,2.4-0.9,4.7-2.6,6.4l-65.5,65.5C-25,1006.3-27.3,1007.3-29.7,1007.3z M-20.7,941.8v34.8l34.8-34.8H-20.7z"/>
<path class="st1" d="M35.8,716.8h-63c-5,0-9-4-9-9s4-9,9-9h63c5,0,9,4,9,9S40.8,716.8,35.8,716.8z"/>
<path class="st1" d="M570.3,1007.3c-1.2,0-2.4-0.2-3.4-0.7c-3.4-1.4-5.6-4.7-5.6-8.3v-65.5c0-5,4-9,9-9h65.5c5,0,9,4,9,9
	c0,2.4-0.9,4.7-2.6,6.4l-65.5,65.5C575,1006.3,572.7,1007.3,570.3,1007.3z M579.3,941.8v34.8l34.8-34.8H579.3z"/>
<path class="st1" d="M635.8,716.8h-63c-5,0-9-4-9-9s4-9,9-9h63c5,0,9,4,9,9S640.8,716.8,635.8,716.8z"/>
<path class="st1" d="M341.8,682.8c-3.9,0-7.4-2.6-8.6-6.4l-25-81.2c-1.5-4.8,1.2-9.8,6-11.2c0,0,0,0,0,0c4.8-1.5,9.8,1.2,11.2,6
	c0,0,0,0,0,0l25,81.2c1.4,4.8-1.3,9.8-6,11.2C343.6,682.6,342.7,682.8,341.8,682.8z"/>
<path class="st1" d="M51.8,627.8c-3.8,0-7.2-2.4-8.5-6l-15.9-46c-1.7-4.7,0.8-9.8,5.5-11.5c0,0,0,0,0.1,0c4.7-1.6,9.8,0.9,11.5,5.5
	l16,46c1.7,4.7-0.8,9.8-5.5,11.5C53.9,627.7,52.8,627.8,51.8,627.8L51.8,627.8z"/>
<path class="st1" d="M442.3,632.8c-0.9,0-1.8-0.1-2.6-0.4c-4.8-1.4-7.4-6.5-6-11.2l17-56c1.4-4.8,6.5-7.4,11.2-6c0,0,0,0,0,0
	c4.8,1.4,7.4,6.5,6,11.2l-17,56C449.8,630.2,446.3,632.8,442.3,632.8z"/>
<path class="st1" d="M51.8,1227.8c-3.8,0-7.2-2.4-8.5-6l-15.9-46c-1.7-4.7,0.6-9.8,5.3-11.6c4.7-1.7,9.8,0.6,11.6,5.3
	c0.1,0.1,0.1,0.3,0.1,0.4l16,46c1.7,4.7-0.8,9.8-5.5,11.5C53.9,1227.7,52.8,1227.9,51.8,1227.8L51.8,1227.8z"/>
<path class="st1" d="M442.3,1232.8c-0.9,0-1.8-0.1-2.6-0.4c-4.8-1.4-7.4-6.5-6-11.2l17-56c1.4-4.8,6.5-7.4,11.2-6
	c4.8,1.4,7.4,6.5,6,11.2l-17,56C449.8,1230.2,446.3,1232.8,442.3,1232.8z"/>
<path class="st1" d="M500.5,758.5c-1.6,0-3.1-0.4-4.5-1.2l-56.9-32.4c-4.3-2.5-5.8-8-3.3-12.3l32.4-56.9c2.5-4.3,8-5.8,12.3-3.3
	c2,1.2,3.5,3.1,4.1,5.4l24.5,89.3c1.3,4.8-1.5,9.7-6.3,11.1C502.1,758.4,501.3,758.5,500.5,758.5L500.5,758.5z M455.9,713.7
	l30.2,17.2l-13-47.4L455.9,713.7z"/>
<path class="st1" d="M291.2,1047.6c-4,0-7.4-2.6-8.6-6.4L264,981c-1.6-4.7,1-9.8,5.7-11.4c4.7-1.6,9.8,1,11.4,5.7
	c0,0.1,0.1,0.3,0.1,0.4l18.6,60.2c1.5,4.8-1.2,9.8-6,11.3C293,1047.5,292.1,1047.6,291.2,1047.6L291.2,1047.6z"/>
<path class="st1" d="M154,966.5c-0.3,0-0.7,0-1,0l-58.2-6.3c-4.9-0.6-8.5-5-7.9-10c0.6-4.9,5-8.5,9.9-7.9l0,0l58.2,6.3
	c4.9,0.5,8.5,5,8,9.9C162.5,963.1,158.6,966.5,154,966.5L154,966.5z"/>
<path class="st1" d="M360.9,839.6c-0.3,0-0.7,0-1,0l-58.2-6.3c-4.9-0.5-8.5-5-8-9.9c0.5-4.9,5-8.5,9.9-8l0,0l58.2,6.3
	c4.9,0.6,8.5,5,7.9,10C369.2,836.1,365.4,839.6,360.9,839.6L360.9,839.6z"/>
<path class="st1" d="M515.2,1125.6c-0.6,0-1.2-0.1-1.7-0.2l-64.3-12.7c-4.9-1-8-5.7-7.1-10.6c0.5-2.3,1.8-4.4,3.8-5.7l76.9-51.6
	c4.1-2.8,9.7-1.7,12.5,2.5c1.3,2,1.8,4.4,1.4,6.8l-12.7,64.3C523.2,1122.6,519.5,1125.6,515.2,1125.6L515.2,1125.6z M474,1099.3
	l34.1,6.7l6.7-34.1L474,1099.3z"/>
<path class="st1" d="M97,776.3c-21.4,0-38.7-17.4-38.7-38.8c0-21.4,17.4-38.7,38.8-38.7c21.4,0,38.7,17.4,38.7,38.7
	C135.8,758.9,118.4,776.3,97,776.3z M97,716.8c-11.5,0-20.7,9.3-20.7,20.8s9.3,20.7,20.8,20.7c11.4,0,20.7-9.3,20.7-20.7
	C117.8,726.1,108.5,716.8,97,716.8z"/>
<path class="st1" d="M112.1,1136.5c-5,0-9-4-9-9c0-2.4,0.9-4.7,2.6-6.4l51.6-51.6c3.5-3.5,9.2-3.5,12.7,0c0,0,0,0,0,0l45.3,45.3
	c3.5,3.5,3.5,9.2,0,12.7c-1.5,1.5-3.6,2.5-5.8,2.6l-96.9,6.3L112.1,1136.5z M163.7,1088.6l-28.4,28.4l53.3-3.5L163.7,1088.6z"/>
<path class="st2" d="M-45.2,824.8c-3.5,0-6.7-2.1-8.2-5.3c-1.5-3.4-0.8-7.4,1.8-10.1l51.6-51.6c3.5-3.5,9.2-3.5,12.7,0c0,0,0,0,0,0
	l45.3,45.3c3.5,3.5,3.5,9.2,0,12.7c-1.5,1.5-3.6,2.5-5.8,2.6l-97,6.3H-45.2z M6.4,776.9l-28.4,28.4l53.3-3.5L6.4,776.9z"/>
<path class="st2" d="M44.8,1148.8c-1.2,0-2.4-0.2-3.5-0.7l-63-27c-4.6-2-6.7-7.2-4.7-11.8c2-4.6,7.2-6.7,11.8-4.7c0,0,0,0,0,0l63,27
	c4.6,2,6.7,7.3,4.7,11.8C51.7,1146.6,48.4,1148.8,44.8,1148.8z"/>
<path class="st2" d="M554.8,824.8c-5,0-9-4-9-9c0-2.4,0.9-4.7,2.6-6.4l51.6-51.6c3.5-3.5,9.2-3.5,12.7,0c0,0,0,0,0,0l45.3,45.3
	c3.5,3.5,3.5,9.2,0,12.7c-1.5,1.5-3.6,2.5-5.8,2.6l-97,6.3H554.8z M606.4,776.9l-28.4,28.4l53.3-3.5L606.4,776.9z"/>
<path class="st2" d="M644.8,1148.8c-1.2,0-2.4-0.2-3.5-0.7l-63-27c-4.6-1.8-6.9-7-5.1-11.7c1.8-4.6,7-6.9,11.7-5.1
	c0.2,0.1,0.3,0.1,0.5,0.2l63,27c4.6,2,6.7,7.3,4.7,11.8C651.7,1146.6,648.4,1148.8,644.8,1148.8z"/>
<path class="st2" d="M355.8,960.2h-64.1c-5,0-9-4-9-9c0-2.2,0.8-4.3,2.2-5.9l64.1-73c3.3-3.7,9-4.1,12.7-0.8c2,1.7,3.1,4.2,3.1,6.8
	v73C364.8,956.2,360.8,960.2,355.8,960.2z M311.6,942.2h35.2v-40.1L311.6,942.2z"/>
<path class="st2" d="M208.8,653.8c-5,0-9-4-9-9v-77c0-5,4-9,9-9s9,4,9,9v77C217.8,649.7,213.8,653.8,208.8,653.8z"/>
<path class="st2" d="M515.9,662.8c-4.3,0-7.9-3-8.8-7.2l-20-95.1c-1-4.9,2.1-9.6,7-10.6c0,0,0,0,0,0c4.9-1,9.6,2.1,10.7,7
	c0,0,0,0,0,0l20,95.1c1,4.9-2.1,9.6-7,10.6c0,0,0,0,0,0C517.2,662.7,516.6,662.8,515.9,662.8z"/>
<path class="st2" d="M208.8,1253.8c-5,0-9-4-9-9v-77c0-5,4-9,9-9s9,4,9,9v77C217.8,1249.7,213.8,1253.8,208.8,1253.8z"/>
<path class="st2" d="M515.9,1262.8c-4.3,0-7.9-3-8.8-7.2l-20-95.1c-1-4.9,2.1-9.6,7-10.7c4.9-1,9.6,2.1,10.7,7l20,95.1
	c1,4.9-2.1,9.6-7,10.6c0,0,0,0,0,0C517.2,1262.7,516.6,1262.8,515.9,1262.8z"/>
<path class="st2" d="M192.1,842.8c-1.2,0-2.4-0.2-3.5-0.7l-63-27c-4.6-1.9-6.8-7.1-5-11.7c1.9-4.6,7.1-6.8,11.7-5
	c0.1,0,0.2,0.1,0.4,0.2l63,27c4.6,2,6.7,7.3,4.7,11.8C198.9,840.6,195.7,842.8,192.1,842.8z"/>
<path class="st2" d="M283.2,1109c-2.9,0-5.7-1.4-7.4-3.8l-61.2-86.2c-2.9-4.1-1.9-9.7,2.2-12.5c4-2.8,9.6-1.9,12.5,2.1l61.2,86.2
	c2.9,4.1,1.9,9.7-2.1,12.5C286.9,1108.5,285.1,1109,283.2,1109L283.2,1109z"/>
<path class="st2" d="M400,814c-1.6,0-3.1-0.4-4.4-1.2l-53-30c-4.3-2.5-5.8-7.9-3.4-12.3c2.5-4.3,7.9-5.8,12.3-3.4l53,30.1
	c4.3,2.5,5.8,7.9,3.4,12.3C406.2,812.3,403.2,814,400,814L400,814z"/>
<path class="st2" d="M92.4,1061.8c-21.4,0-38.7-17.3-38.7-38.8c0-21.4,17.3-38.8,38.8-38.8s38.8,17.3,38.8,38.8
	C131.1,1044.4,113.7,1061.7,92.4,1061.8z M92.4,1002.3c-11.5,0-20.8,9.3-20.8,20.8c0,11.5,9.3,20.8,20.8,20.8s20.8-9.3,20.8-20.8
	l0,0C113.1,1011.6,103.8,1002.3,92.4,1002.3L92.4,1002.3z"/>
<path class="st2" d="M459.6,1024.4c-21.4,0-38.8-17.3-38.8-38.8c0-21.4,17.3-38.8,38.8-38.8s38.8,17.3,38.8,38.8l0,0
	C498.3,1007,481,1024.4,459.6,1024.4z M459.6,964.9c-11.5,0-20.8,9.3-20.8,20.8s9.3,20.8,20.8,20.8s20.8-9.3,20.8-20.8l0,0
	C480.3,974.2,471.1,964.9,459.6,964.9z"/>
<path class="st3" d="M97,644.8c-1.2,0-2.4-0.2-3.4-0.7c-3.4-1.4-5.6-4.7-5.6-8.3V580c0-5,4-9,9-9h55.8c3.6,0,6.9,2.2,8.3,5.6
	c1.4,3.4,0.6,7.2-1.9,9.8l-55.8,55.8C101.7,643.8,99.4,644.8,97,644.8z M106,589V614l25.1-25.1H106z"/>
<path class="st3" d="M35.8,887.8c-1.1,0-2.1-0.2-3.2-0.6l-72-27c-4.7-1.7-7-6.9-5.3-11.6c0,0,0,0,0,0c1.7-4.7,6.9-7,11.6-5.3
	c0,0,0,0,0,0l72,27c4.7,1.7,7,6.9,5.3,11.6C42.9,885.4,39.6,887.8,35.8,887.8z"/>
<path class="st3" d="M635.8,887.8c-1.1,0-2.1-0.2-3.2-0.6l-72-27c-4.7-1.7-7-6.9-5.3-11.6c1.7-4.7,6.9-7,11.6-5.3l72,27
	c4.7,1.7,7,6.9,5.3,11.6C642.9,885.4,639.6,887.8,635.8,887.8z"/>
<path class="st3" d="M245.4,636c-5,0-9-4-9-9c0-2.4,0.9-4.7,2.6-6.4l54.4-54.4c3.5-3.5,9.2-3.5,12.7,0c3.5,3.5,3.5,9.2,0,12.7
	c0,0,0,0,0,0l-54.4,54.4C250.1,635,247.8,636,245.4,636z"/>
<path class="st3" d="M97,1244.8c-1.2,0-2.4-0.2-3.4-0.7c-3.4-1.4-5.6-4.7-5.6-8.3V1180c0-5,4-9,9-9h55.8c5,0,9,4,9,9
	c0,2.4-0.9,4.7-2.6,6.4l-55.8,55.8C101.7,1243.8,99.4,1244.8,97,1244.8z M106,1189v25.1l25.1-25.1H106z"/>
<path class="st3" d="M245.4,1236c-5,0-9-4-9-9c0-2.4,0.9-4.7,2.6-6.4l54.4-54.4c3.6-3.4,9.3-3.3,12.7,0.3c3.3,3.5,3.3,9,0,12.5
	l-54.4,54.4C250.1,1235,247.8,1236,245.4,1236z"/>
<path class="st3" d="M192.5,937.1c-2.7,0-5.3-1.2-7-3.3l-48.4-59.8c-3.1-3.9-2.5-9.5,1.3-12.7s9.5-2.5,12.7,1.3l48.4,59.8
	c3.1,3.9,2.5,9.5-1.3,12.7C196.6,936.4,194.6,937.1,192.5,937.1L192.5,937.1z"/>
<path class="st3" d="M285.8,785.6c-5,0-9-4-9-9c0-2.4,0.9-4.7,2.6-6.4l54.4-54.4c3.5-3.5,9.2-3.5,12.7,0c3.5,3.5,3.5,9.2,0,12.7
	L292.2,783C290.5,784.7,288.2,785.6,285.8,785.6z"/>
<path class="st3" d="M423.6,1155.1c-3.2,0-6.2-1.7-7.8-4.5l-38.4-66.6c-2.5-4.3-1-9.8,3.3-12.3c4.3-2.5,9.8-1,12.3,3.3l38.5,66.6
	c2.5,4.3,1,9.8-3.3,12.3C426.8,1154.6,425.2,1155.1,423.6,1155.1L423.6,1155.1z"/>
<path class="st4" d="M404.8,645.9c-2.2,0-4.3-0.8-5.9-2.2l-73-64.1c-2.8-2.5-3.8-6.4-2.5-9.9c1.3-3.5,4.7-5.8,8.4-5.8h73
	c5,0,9,4,9,9v64.1C413.8,641.8,409.8,645.9,404.8,645.9z M355.7,581.8l40.1,35.2v-35.2H355.7z"/>
<path class="st4" d="M-22.7,1081.3c-2.4,0-4.7-1-6.4-2.6c-3.5-3.5-3.5-9.2,0-12.7l58.5-58.5c3.6-3.4,9.3-3.2,12.7,0.4
	c3.2,3.5,3.2,8.8,0,12.3l-58.5,58.5C-18,1080.3-20.3,1081.3-22.7,1081.3z"/>
<path class="st4" d="M26.8,680.8c-1.9,0-3.8-0.6-5.4-1.8l-72-54c-4-3-4.8-8.6-1.8-12.6l0,0c3-4,8.6-4.8,12.6-1.8c0,0,0,0,0,0l72,54
	c4,3,4.8,8.6,1.8,12.6C32.3,679.4,29.7,680.8,26.8,680.8z"/>
<path class="st4" d="M577.3,1081.3c-5,0-9-4-9-9c0-2.4,0.9-4.7,2.6-6.4l58.5-58.5c3.6-3.4,9.3-3.2,12.7,0.4c3.2,3.5,3.2,8.8,0,12.3
	l-58.5,58.5C582,1080.3,579.7,1081.3,577.3,1081.3z"/>
<path class="st4" d="M626.8,680.8c-1.9,0-3.8-0.6-5.4-1.8l-72-54c-4-3-4.8-8.6-1.8-12.6c3-4,8.6-4.8,12.6-1.8c0,0,0,0,0,0l72,54
	c4,3,4.8,8.6,1.8,12.6C632.3,679.4,629.7,680.8,626.8,680.8z"/>
<path class="st4" d="M404.8,1245.9c-2.2,0-4.3-0.8-5.9-2.2l-73-64.1c-3.7-3.3-4.1-9-0.8-12.7c1.7-1.9,4.2-3.1,6.8-3.1h73
	c5,0,9,4,9,9v64.1C413.8,1241.8,409.8,1245.9,404.8,1245.9z M355.7,1181.8l40.1,35.2v-35.2H355.7z"/>
<path class="st4" d="M294.1,887.2h-0.2l-97.1-1.6c-5-0.1-8.9-4.2-8.8-9.2c0-2.6,1.2-5,3.1-6.7l55.7-47.3c3.8-3.2,9.5-2.8,12.7,1
	l41.5,48.9c3.2,3.8,2.7,9.5-1,12.7C298.3,886.4,296.3,887.2,294.1,887.2L294.1,887.2z M221,868l53.4,0.9L251.6,842L221,868z"/>
<path class="st4" d="M422.5,1057.8c-1.2,0-2.4-0.2-3.5-0.7l-72.8-30.3c-4.6-1.9-6.8-7.2-4.8-11.8c0.9-2.2,2.7-3.9,4.9-4.9l51.6-21.2
	c4.6-1.9,9.8,0.3,11.8,4.8l21.2,51.6c1.9,4.6-0.4,9.9-5,11.7C424.8,1057.5,423.7,1057.8,422.5,1057.8z M373.2,1018.4l32.7,13.7
	l-9.5-23.2L373.2,1018.4z"/>
<path class="st4" d="M501,894.2h-82.7c-5,0-9-4-9-9c0-5,4-9,9-9H501c5,0,9,4,9,9C510,890.2,505.9,894.2,501,894.2z"/>
<path class="st4" d="M177,732.1c-3.6,0-6.8-2.1-8.3-5.4l-32.8-76c-2-4.6,0.1-9.9,4.7-11.8s9.9,0.1,11.8,4.7l32.8,76
	c2,4.6-0.1,9.9-4.7,11.8C179.4,731.9,178.2,732.2,177,732.1L177,732.1z"/>
<path class="st4" d="M295.1,728.3c-1.6,0-3.1-0.4-4.5-1.2l-71.7-41.3c-4.3-2.5-5.8-8-3.3-12.3c2.5-4.3,8-5.8,12.3-3.3l71.7,41.4
	c4.3,2.5,5.8,8,3.3,12.3C301.3,726.6,298.3,728.4,295.1,728.3L295.1,728.3z"/>
<path class="st4" d="M160.6,1032.4c-5,0-9-4-9-9c0-2.4,0.9-4.7,2.6-6.4l58.5-58.5c3.4-3.6,9.1-3.7,12.7-0.3
	c3.6,3.4,3.7,9.1,0.3,12.7c-0.1,0.1-0.2,0.2-0.3,0.3l-58.5,58.5C165.3,1031.5,163,1032.4,160.6,1032.4z"/>
<path class="st4" d="M507.9,821.2c-1.6,0-3.1-0.4-4.5-1.2l-71.6-41.4c-4.2-2.6-5.5-8.2-2.9-12.4c2.5-4.1,7.7-5.5,11.9-3.2l71.6,41.4
	c4.3,2.5,5.8,8,3.3,12.3C514.1,819.5,511.1,821.2,507.9,821.2z"/>
<path class="st4" d="M112.4,899.9c-4.3,0-7.9-3-8.8-7.1l-13.3-63.2c-1-4.9,2.1-9.6,7-10.7c4.9-1,9.6,2.1,10.7,7l13.3,63.2
	c1,4.9-2.1,9.6-7,10.7C113.7,899.8,113,899.9,112.4,899.9L112.4,899.9z"/>
<path class="st5" d="M62.6,676.6c-9.1,0-16.5-7.4-16.5-16.5c0-9.1,7.4-16.5,16.5-16.5s16.5,7.4,16.5,16.5l0,0
	C79.1,669.2,71.7,676.6,62.6,676.6z"/>
<path class="st5" d="M396.9,949.3c-9.1,0-16.5-7.4-16.5-16.5c0-9.1,7.4-16.5,16.5-16.5s16.5,7.4,16.5,16.5l0,0
	C413.4,941.9,406,949.3,396.9,949.3z"/>
<path class="st5" d="M386.1,737.8c-9.1,0-16.5-7.4-16.5-16.5c0-9.1,7.4-16.5,16.5-16.5s16.5,7.4,16.5,16.5
	C402.6,730.4,395.2,737.8,386.1,737.8z"/>
<path class="st5" d="M62.6,1116c-2.4,0-4.7-1-6.4-2.6l-10.9-10.9c-3.5-3.5-3.5-9.2,0-12.7l10.9-10.9c3.5-3.5,9.2-3.5,12.7,0
	c0,0,0,0,0,0l10.8,10.9c3.5,3.5,3.5,9.2,0,12.7L69,1113.4C67.3,1115.1,65,1116,62.6,1116z"/>
<path class="st5" d="M562.3,1180.1c-2.4,0-4.7-1-6.4-2.6l-10.9-10.9c-3.5-3.5-3.5-9.2,0-12.7l10.9-10.9c3.5-3.5,9.2-3.5,12.7,0
	l10.9,10.9c3.5,3.5,3.5,9.2,0,12.7l-10.9,10.9C567,1179.2,564.7,1180.1,562.3,1180.1z"/>
<path class="st5" d="M281.4,672.3c-2.1,0-4.1-0.7-5.7-2l-12-9.7c-3.9-3.1-4.5-8.8-1.3-12.7c0,0,0,0,0,0l9.7-11.9
	c3.1-3.9,8.8-4.5,12.7-1.3c0,0,0,0,0,0l12,9.7c3.9,3.1,4.5,8.8,1.3,12.7c0,0,0,0,0,0l-9.7,11.9c-1.5,1.9-3.7,3-6,3.3
	C282.1,672.2,281.8,672.3,281.4,672.3z"/>
<path class="st5" d="M70.1,926.8c-9.1,0-16.5-7.4-16.5-16.5c0-9.1,7.4-16.5,16.5-16.5s16.5,7.4,16.5,16.5l0,0
	C86.6,919.4,79.2,926.8,70.1,926.8z"/>
<path class="st5" d="M443.6,857.6c-9.1,0-16.5-7.4-16.5-16.5c0-9.1,7.4-16.5,16.5-16.5s16.5,7.4,16.5,16.5l0,0
	C460.1,850.2,452.7,857.6,443.6,857.6z"/>
<path class="st5" d="M554.8,909.2c-9.1,0-16.5-7.4-16.5-16.5c0-9.1,7.4-16.5,16.5-16.5c9.1,0,16.5,7.4,16.5,16.5c0,0,0,0,0,0
	C571.3,901.9,563.9,909.2,554.8,909.2z"/>
<path class="st5" d="M208.8,787.6c-9.1,0-16.5-7.4-16.5-16.5c0-9.1,7.4-16.5,16.5-16.5s16.5,7.4,16.5,16.5
	C225.3,780.2,217.9,787.6,208.8,787.6z"/>
<path class="st5" d="M246.6,945.1c-2.1,0-4.1-0.7-5.7-2l-11.9-9.7c-3.9-3.1-4.4-8.8-1.3-12.6l9.7-12c3.1-3.9,8.8-4.5,12.7-1.3
	c0,0,0,0,0,0l11.9,9.7c3.9,3.1,4.5,8.8,1.3,12.7c0,0,0,0,0,0l-9.7,12c-1.5,1.9-3.7,3-6.1,3.3C247.3,945.1,246.9,945.1,246.6,945.1z"
	/>
<path class="st5" d="M533,718.6c-2.1,0-4.1-0.7-5.7-2l-11.9-9.7c-3.9-3.1-4.5-8.8-1.3-12.7c0,0,0,0,0,0l9.7-11.9
	c3.1-3.9,8.8-4.5,12.7-1.3l11.9,9.7c3.9,3.1,4.5,8.8,1.3,12.7c0,0,0,0,0,0l-9.7,11.9c-1.5,1.9-3.7,3-6,3.3
	C533.7,718.6,533.3,718.6,533,718.6z"/>
<path class="st5" d="M331.8,1101.8c-9.1,0-16.5-7.4-16.5-16.5s7.4-16.5,16.5-16.5s16.5,7.4,16.5,16.5l0,0
	C348.3,1094.4,340.9,1101.8,331.8,1101.8z"/>
</svg>
