<svg id="Layer_1" data-name="Layer 1" xmlns="http://www.w3.org/2000/svg" xmlns:xlink="http://www.w3.org/1999/xlink" viewBox="0 0 2899.62 2397.34"><defs><style>.cls-1{fill:url(#linear-gradient);}.cls-2{fill:#ccc;}.cls-3{fill:#333;}</style><linearGradient id="linear-gradient" x1="1449.81" y1="2385.64" x2="1449.81" y2="1983.76" gradientUnits="userSpaceOnUse"><stop offset="0" stop-color="#c2c2c2"/><stop offset="0.08" stop-color="#abacad"/><stop offset="0.33" stop-color="#fff"/><stop offset="0.66" stop-color="#bfbebf"/><stop offset="0.84" stop-color="#8b898a"/><stop offset="1" stop-color="#4d4d4d"/></linearGradient></defs><title>Artboard 1</title><path class="cls-1" d="M1953.35,2376.81l-109.43-56.08a137.41,137.41,0,0,1-73.54-104.12l-30.1-225.5H1159.34l-30.1,225.5a137.41,137.41,0,0,1-73.54,104.12l-109.43,56.08c-10.15,5.2-6.45,20.53,5,20.53H1948.4C1959.8,2397.34,1963.5,2382,1953.35,2376.81Z"/><path class="cls-2" d="M0,1917.41a73.7,73.7,0,0,0,73.7,73.7H2825.93a73.7,73.7,0,0,0,73.69-73.7V1722.57H0Z"/><path class="cls-3" d="M2825.93,0H73.7A73.69,73.69,0,0,0,0,73.7V1722.57H2899.62V73.7A73.69,73.69,0,0,0,2825.93,0Zm-40.77,1608.11H114.46V114.46h2670.7Z"/></svg>