<svg id="Layer_1" data-name="Layer 1" xmlns="http://www.w3.org/2000/svg" viewBox="0 0 600 1201.5"><defs><style>.cls-1,.cls-2,.cls-3,.cls-4,.cls-5{fill:none;stroke-miterlimit:10;}.cls-1{stroke:#ee5a24;}.cls-2{stroke:#ffc312;}.cls-3{stroke:#fda7df;}.cls-4{stroke:#12cbc4;}.cls-5{stroke:#1b1464;}</style></defs><title>Artboard 1</title><path class="cls-1" d="M-29.5,407.5a7.67,7.67,0,0,1-3.4-.7,9,9,0,0,1-5.6-8.3V333a9,9,0,0,1,9-9H36a9.05,9.05,0,0,1,6.4,15.4l-65.5,65.5A9.44,9.44,0,0,1-29.5,407.5Zm9-65.5v34.8L14.3,342Z"/><path class="cls-1" d="M36,117H-27a9,9,0,0,1-9-9,9,9,0,0,1,9-9H36a9,9,0,0,1,0,18Z"/><path class="cls-1" d="M570.5,407.5a7.67,7.67,0,0,1-3.4-.7,9,9,0,0,1-5.6-8.3V333a9,9,0,0,1,9-9H636a9.05,9.05,0,0,1,6.4,15.4l-65.5,65.5A9.44,9.44,0,0,1,570.5,407.5Zm9-65.5v34.8L614.3,342Z"/><path class="cls-1" d="M636,117H573a9,9,0,0,1,0-18h63a9,9,0,0,1,0,18Z"/><path class="cls-1" d="M342,83a9.13,9.13,0,0,1-8.6-6.3l-25-81.2a8.86,8.86,0,0,1,6-11.2h0a8.86,8.86,0,0,1,11.2,6h0l25,81.2a9,9,0,0,1-6,11.2A10.9,10.9,0,0,1,342,83Z"/><path class="cls-1" d="M51.9,28a9.05,9.05,0,0,1-8.5-6L27.5-24A9,9,0,0,1,33-35.5h.1A9.16,9.16,0,0,1,44.6-30l16,46a9,9,0,0,1-5.5,11.5,7.17,7.17,0,0,1-3.2.5Z"/><path class="cls-1" d="M442.5,33a7.46,7.46,0,0,1-2.6-.4,9,9,0,0,1-6-11.2l17-56a9,9,0,0,1,11.2-6h0a9,9,0,0,1,6,11.2l-17,56A9.09,9.09,0,0,1,442.5,33Z"/><path class="cls-1" d="M51.9,628a9.05,9.05,0,0,1-8.5-6L27.5,576a9,9,0,0,1,16.9-6.3.6.6,0,0,1,.1.4l16,46A9,9,0,0,1,55,627.6a8,8,0,0,1-3.1.4Z"/><path class="cls-1" d="M442.5,633a7.46,7.46,0,0,1-2.6-.4,9,9,0,0,1-6-11.2l17-56a9,9,0,1,1,17.2,5.2l-17,56A9.09,9.09,0,0,1,442.5,633Z"/><path class="cls-1" d="M500.7,158.7a8.92,8.92,0,0,1-4.5-1.2l-56.9-32.4a9,9,0,0,1-3.3-12.3l32.4-56.9A8.93,8.93,0,0,1,484.8,58l24.5,89.3a9.08,9.08,0,0,1-6.3,11.1,8.52,8.52,0,0,1-2.3.3Zm-44.6-44.8,30.2,17.2-13-47.4Z"/><path class="cls-1" d="M291.4,447.8a9,9,0,0,1-8.6-6.4l-18.5-60.2a9,9,0,0,1,17.1-5.7c0,.1.1.3.1.4l18.6,60.2a9,9,0,0,1-6,11.3,8.42,8.42,0,0,1-2.7.4Z"/><path class="cls-1" d="M154.2,366.7h-1L95,360.4a9,9,0,0,1,2-17.9h0l58.2,6.3a9.06,9.06,0,0,1,8,9.9,8.92,8.92,0,0,1-9,8Z"/><path class="cls-1" d="M361.1,239.8a3.4,3.4,0,0,1-1-.1l-58.2-6.3a9,9,0,1,1,1.9-17.9h0l58.2,6.3a9,9,0,0,1,7.9,10,8.88,8.88,0,0,1-8.8,8Z"/><path class="cls-1" d="M515.3,525.8a8.81,8.81,0,0,1-1.7-.2L449.3,513a9,9,0,0,1-3.3-16.3l76.9-51.6a8.94,8.94,0,0,1,12.5,2.5,9.53,9.53,0,0,1,1.4,6.8l-12.7,64.3a8.76,8.76,0,0,1-8.8,7.1Zm-41.2-26.2,34.1,6.7,6.7-34.1Z"/><path class="cls-1" d="M97.2,176.5A38.75,38.75,0,1,1,136,137.7,38.75,38.75,0,0,1,97.2,176.5Zm0-59.5A20.75,20.75,0,1,0,118,137.8,20.7,20.7,0,0,0,97.2,117Z"/><path class="cls-1" d="M112.3,536.7a9.05,9.05,0,0,1-6.4-15.4l51.6-51.6a9,9,0,0,1,12.7,0h0L215.5,515a9,9,0,0,1-5.8,15.3l-96.9,6.3Zm51.6-47.9-28.4,28.4,53.3-3.5Z"/><path class="cls-2" d="M-45,225a9.13,9.13,0,0,1-8.2-5.3,9.21,9.21,0,0,1,1.8-10.1L.2,158a9,9,0,0,1,12.7,0h0l45.3,45.3a9,9,0,0,1-5.8,15.3l-97,6.3H-45ZM6.6,177.1l-28.4,28.4L31.5,202Z"/><path class="cls-2" d="M45,549a8.42,8.42,0,0,1-3.5-.7l-63-27a8.91,8.91,0,0,1-4.7-11.8,8.91,8.91,0,0,1,11.8-4.7h0l63,27a8.94,8.94,0,0,1,4.7,11.8A9.09,9.09,0,0,1,45,549Z"/><path class="cls-2" d="M555,225a9.05,9.05,0,0,1-6.4-15.4L600.2,158a9,9,0,0,1,12.7,0h0l45.3,45.3a9,9,0,0,1-5.8,15.3l-97,6.3H555Zm51.6-47.9-28.4,28.4,53.3-3.5Z"/><path class="cls-2" d="M645,549a8.42,8.42,0,0,1-3.5-.7l-63-27a9,9,0,1,1,6.6-16.8c.2.1.3.1.5.2l63,27A9,9,0,0,1,645,549Z"/><path class="cls-2" d="M356,360.5H291.9a9,9,0,0,1-6.8-14.9l64.1-73a9,9,0,0,1,12.7-.8,8.9,8.9,0,0,1,3.1,6.8v73A9,9,0,0,1,356,360.5Zm-44.2-18H347V302.4Z"/><path class="cls-2" d="M209,54a9,9,0,0,1-9-9V-32a9,9,0,0,1,9-9,9,9,0,0,1,9,9V45A9,9,0,0,1,209,54Z"/><path class="cls-2" d="M516.1,63a9,9,0,0,1-8.8-7.2l-20-95.1a8.93,8.93,0,0,1,7-10.6h0a9.08,9.08,0,0,1,10.7,7h0l20,95.1a8.93,8.93,0,0,1-7,10.6h0A5.84,5.84,0,0,1,516.1,63Z"/><path class="cls-2" d="M209,654a9,9,0,0,1-9-9V568a9,9,0,0,1,18,0v77A9,9,0,0,1,209,654Z"/><path class="cls-2" d="M516.1,663a9,9,0,0,1-8.8-7.2l-20-95.1A9,9,0,1,1,505,557l20,95.1a8.93,8.93,0,0,1-7,10.6h0A6.28,6.28,0,0,1,516.1,663Z"/><path class="cls-2" d="M192.3,243a8.42,8.42,0,0,1-3.5-.7l-63-27a9,9,0,0,1,6.7-16.7c.1,0,.2.1.4.2l63,27a8.94,8.94,0,0,1,4.7,11.8A9.09,9.09,0,0,1,192.3,243Z"/><path class="cls-2" d="M283.4,509.3a9.1,9.1,0,0,1-7.4-3.8l-61.2-86.2a8.88,8.88,0,0,1,2.2-12.5,9.07,9.07,0,0,1,12.5,2.1l61.2,86.2a8.94,8.94,0,0,1-2.1,12.5,8.75,8.75,0,0,1-5.2,1.7Z"/><path class="cls-2" d="M400.1,214.2a8.31,8.31,0,0,1-4.4-1.2l-53-30.1a9,9,0,0,1,8.9-15.7l53,30.1a9,9,0,0,1-4.5,16.9Z"/><path class="cls-2" d="M92.5,462a38.8,38.8,0,1,1,38.8-38.8A38.69,38.69,0,0,1,92.5,462Zm0-59.5a20.75,20.75,0,1,0,20.8,20.7h0a20.76,20.76,0,0,0-20.8-20.7Z"/><path class="cls-2" d="M459.8,424.6a38.8,38.8,0,1,1,38.8-38.8h0A38.84,38.84,0,0,1,459.8,424.6Zm0-59.5a20.8,20.8,0,1,0,20.8,20.8h0A20.91,20.91,0,0,0,459.8,365.1Z"/><path class="cls-3" d="M97.2,45a7.67,7.67,0,0,1-3.4-.7A9,9,0,0,1,88.2,36V-19.8a9,9,0,0,1,9-9H153a9,9,0,0,1,8.3,5.6,9.09,9.09,0,0,1-1.9,9.8L103.6,42.4A9.44,9.44,0,0,1,97.2,45Zm9-55.8V14.3l25.1-25.1Z"/><path class="cls-3" d="M36,288a9.06,9.06,0,0,1-3.2-.6l-72-27a9,9,0,0,1-5.3-11.6h0a9,9,0,0,1,11.6-5.3h0l72,27a9,9,0,0,1,5.3,11.6A8.84,8.84,0,0,1,36,288Z"/><path class="cls-3" d="M636,288a9.06,9.06,0,0,1-3.2-.6l-72-27a9,9,0,0,1,6.3-16.9l72,27a9,9,0,0,1,5.3,11.6A8.84,8.84,0,0,1,636,288Z"/><path class="cls-3" d="M245.6,36.2a9.05,9.05,0,0,1-6.4-15.4l54.4-54.4a9,9,0,0,1,12.7,0,9,9,0,0,1,0,12.7h0L252,33.5A9.09,9.09,0,0,1,245.6,36.2Z"/><path class="cls-3" d="M97.2,645a7.67,7.67,0,0,1-3.4-.7,9,9,0,0,1-5.6-8.3V580.2a9,9,0,0,1,9-9H153a9.05,9.05,0,0,1,6.4,15.4l-55.8,55.8A9.44,9.44,0,0,1,97.2,645Zm9-55.8v25.1l25.1-25.1Z"/><path class="cls-3" d="M245.6,636.2a9.05,9.05,0,0,1-6.4-15.4l54.4-54.4a9,9,0,0,1,12.7.3,9.13,9.13,0,0,1,0,12.5L252,633.5A9.09,9.09,0,0,1,245.6,636.2Z"/><path class="cls-3" d="M192.7,337.4a9,9,0,0,1-7-3.3l-48.4-59.8a9,9,0,0,1,14-11.4l48.4,59.8a9.13,9.13,0,0,1-1.3,12.7,9,9,0,0,1-5.7,2Z"/><path class="cls-3" d="M286,185.9a9.05,9.05,0,0,1-6.4-15.4L334,116.1a9,9,0,1,1,12.7,12.7l-54.4,54.4A8.69,8.69,0,0,1,286,185.9Z"/><path class="cls-3" d="M423.8,555.3a9,9,0,0,1-7.8-4.5l-38.4-66.6a9,9,0,1,1,15.6-9l38.5,66.6a9,9,0,0,1-3.3,12.3,9.29,9.29,0,0,1-4.6,1.2Z"/><path class="cls-4" d="M405,46.1a9,9,0,0,1-5.9-2.2l-73-64.1a9,9,0,0,1-2.5-9.9,9,9,0,0,1,8.4-5.8h73a9,9,0,0,1,9,9V37.2A8.94,8.94,0,0,1,405,46.1ZM355.9-18,396,17.2V-18Z"/><path class="cls-4" d="M-22.5,481.5a9.44,9.44,0,0,1-6.4-2.6,9,9,0,0,1,0-12.7l58.5-58.5a9,9,0,0,1,12.7,12.7l-58.5,58.5A9,9,0,0,1-22.5,481.5Z"/><path class="cls-4" d="M27,81a9,9,0,0,1-5.4-1.8l-72-54a9,9,0,0,1-1.8-12.6h0a9,9,0,0,1,12.6-1.8h0l72,54A9,9,0,0,1,27,81Z"/><path class="cls-4" d="M577.5,481.5a9.05,9.05,0,0,1-6.4-15.4l58.5-58.5a9,9,0,0,1,12.7,12.7l-58.5,58.5A8.69,8.69,0,0,1,577.5,481.5Z"/><path class="cls-4" d="M627,81a9,9,0,0,1-5.4-1.8l-72-54a9,9,0,1,1,10.8-14.4h0l72,54A9,9,0,0,1,627,81Z"/><path class="cls-4" d="M405,646.1a9,9,0,0,1-5.9-2.2l-73-64.1a9,9,0,0,1-.8-12.7,9.25,9.25,0,0,1,6.8-3.1h73a9,9,0,0,1,9,9v64.1A9.11,9.11,0,0,1,405,646.1ZM355.9,582,396,617.2V582Z"/><path class="cls-4" d="M294.3,287.5h-.2L197,285.9a9.07,9.07,0,0,1-5.7-15.9L247,222.7a9,9,0,0,1,12.7,1l41.5,48.9a9.11,9.11,0,0,1-1,12.7,10,10,0,0,1-5.9,2.2Zm-73.1-19.3,53.4.9-22.8-26.9Z"/><path class="cls-4" d="M422.7,458a8.42,8.42,0,0,1-3.5-.7L346.4,427a8.92,8.92,0,0,1-4.8-11.8,9.39,9.39,0,0,1,4.9-4.9l51.6-21.2a9.13,9.13,0,0,1,11.8,4.8l21.2,51.6a9,9,0,0,1-5,11.7A7.07,7.07,0,0,1,422.7,458Zm-49.3-39.3,32.7,13.7-9.5-23.2Z"/><path class="cls-4" d="M501.2,294.5H418.5a9,9,0,0,1,0-18h82.7a9,9,0,1,1,0,18Z"/><path class="cls-4" d="M177.2,132.3a9.09,9.09,0,0,1-8.3-5.4L136.1,51a9,9,0,0,1,16.5-7.1l32.8,76a8.88,8.88,0,0,1-4.7,11.8,8.34,8.34,0,0,1-3.5.6Z"/><path class="cls-4" d="M295.2,128.5a8.92,8.92,0,0,1-4.5-1.2L219.1,86a9,9,0,1,1,9-15.6l71.7,41.4a9,9,0,0,1,3.3,12.3,8.74,8.74,0,0,1-7.9,4.4Z"/><path class="cls-4" d="M160.8,432.7a9.05,9.05,0,0,1-6.4-15.4l58.5-58.5a9,9,0,0,1,13,12.4l-.3.3L167.1,430A8.86,8.86,0,0,1,160.8,432.7Z"/><path class="cls-4" d="M508,221.4a8.92,8.92,0,0,1-4.5-1.2l-71.6-41.4a9,9,0,0,1-2.9-12.4,8.89,8.89,0,0,1,11.9-3.2l71.6,41.4a9,9,0,0,1,3.3,12.3A8.75,8.75,0,0,1,508,221.4Z"/><path class="cls-4" d="M112.6,300.1a9,9,0,0,1-8.8-7.1L90.5,229.8a9,9,0,0,1,17.7-3.7l13.3,63.2a9.08,9.08,0,0,1-7,10.7c-.7,0-1.3.1-1.9.1Z"/><path class="cls-5" d="M62.8,76.9A16.5,16.5,0,1,1,79.3,60.4h0A16.58,16.58,0,0,1,62.8,76.9Z"/><path class="cls-5" d="M397.1,349.5A16.5,16.5,0,1,1,413.6,333h0A16.52,16.52,0,0,1,397.1,349.5Z"/><path class="cls-5" d="M386.3,138a16.5,16.5,0,1,1,16.5-16.5A16.52,16.52,0,0,1,386.3,138Z"/><path class="cls-5" d="M62.8,516.3a9.44,9.44,0,0,1-6.4-2.6L45.5,502.8a9,9,0,0,1,0-12.7l10.9-10.9a9,9,0,0,1,12.7,0h0L80,490a9,9,0,0,1,0,12.7L69.2,513.6A9.09,9.09,0,0,1,62.8,516.3Z"/><path class="cls-5" d="M562.5,580.4a9.44,9.44,0,0,1-6.4-2.6l-10.9-10.9a9,9,0,0,1,0-12.7l10.9-10.9a9,9,0,0,1,12.7,0l10.9,10.9a9,9,0,0,1,0,12.7l-10.9,10.9A9,9,0,0,1,562.5,580.4Z"/><path class="cls-5" d="M281.6,72.5a9,9,0,0,1-5.7-2l-12-9.7a8.94,8.94,0,0,1-1.3-12.7h0l9.7-11.9A8.94,8.94,0,0,1,285,34.9h0l12,9.7a8.94,8.94,0,0,1,1.3,12.7h0l-9.7,11.9a9.08,9.08,0,0,1-6,3.3Z"/><path class="cls-5" d="M70.3,327a16.5,16.5,0,1,1,16.5-16.5h0A16.52,16.52,0,0,1,70.3,327Z"/><path class="cls-5" d="M443.8,257.8a16.5,16.5,0,1,1,16.5-16.5h0A16.52,16.52,0,0,1,443.8,257.8Z"/><path class="cls-5" d="M555,309.5A16.5,16.5,0,1,1,571.5,293h0A16.52,16.52,0,0,1,555,309.5Z"/><path class="cls-5" d="M209,187.8a16.5,16.5,0,1,1,16.5-16.5A16.52,16.52,0,0,1,209,187.8Z"/><path class="cls-5" d="M246.8,345.3a9,9,0,0,1-5.7-2l-11.9-9.7a8.92,8.92,0,0,1-1.3-12.6l9.7-12a8.94,8.94,0,0,1,12.7-1.3h0l11.9,9.7a8.94,8.94,0,0,1,1.3,12.7h0l-9.7,12a9.08,9.08,0,0,1-6.1,3.3A2.77,2.77,0,0,0,246.8,345.3Z"/><path class="cls-5" d="M533.2,118.8a9,9,0,0,1-5.7-2l-11.9-9.7a8.94,8.94,0,0,1-1.3-12.7h0L524,82.5a8.94,8.94,0,0,1,12.7-1.3l11.9,9.7a8.94,8.94,0,0,1,1.3,12.7h0l-9.7,11.9a9.08,9.08,0,0,1-6,3.3Z"/><path class="cls-5" d="M332,502a16.5,16.5,0,1,1,16.5-16.5h0A16.52,16.52,0,0,1,332,502Z"/><path class="cls-1" d="M-29.7,1007.3a7.67,7.67,0,0,1-3.4-.7,9,9,0,0,1-5.6-8.3V932.8a9,9,0,0,1,9-9H35.8a9.05,9.05,0,0,1,6.4,15.4l-65.5,65.5A9.44,9.44,0,0,1-29.7,1007.3Zm9-65.5v34.8l34.8-34.8Z"/><path class="cls-1" d="M35.8,716.8h-63a9,9,0,0,1-9-9,9,9,0,0,1,9-9h63a9,9,0,0,1,0,18Z"/><path class="cls-1" d="M570.3,1007.3a7.67,7.67,0,0,1-3.4-.7,9,9,0,0,1-5.6-8.3V932.8a9,9,0,0,1,9-9h65.5a9.05,9.05,0,0,1,6.4,15.4l-65.5,65.5A9.44,9.44,0,0,1,570.3,1007.3Zm9-65.5v34.8l34.8-34.8Z"/><path class="cls-1" d="M635.8,716.8h-63a9,9,0,0,1,0-18h63a9,9,0,0,1,0,18Z"/><path class="cls-1" d="M341.8,682.8a9.09,9.09,0,0,1-8.6-6.4l-25-81.2a8.86,8.86,0,0,1,6-11.2h0a8.86,8.86,0,0,1,11.2,6h0l25,81.2a9,9,0,0,1-6,11.2A10.87,10.87,0,0,1,341.8,682.8Z"/><path class="cls-1" d="M51.8,627.8a9.05,9.05,0,0,1-8.5-6l-15.9-46a9,9,0,0,1,5.5-11.5H33a9.16,9.16,0,0,1,11.5,5.5l16,46A9,9,0,0,1,55,627.3a9.27,9.27,0,0,1-3.2.5Z"/><path class="cls-1" d="M442.3,632.8a7.46,7.46,0,0,1-2.6-.4,9,9,0,0,1-6-11.2l17-56a9,9,0,0,1,11.2-6h0a9,9,0,0,1,6,11.2l-17,56A8.91,8.91,0,0,1,442.3,632.8Z"/><path class="cls-1" d="M51.8,1227.8a9.05,9.05,0,0,1-8.5-6l-15.9-46a9,9,0,0,1,16.9-6.3.6.6,0,0,1,.1.4l16,46a9,9,0,0,1-5.5,11.5,8.28,8.28,0,0,1-3.1.4Z"/><path class="cls-1" d="M442.3,1232.8a7.46,7.46,0,0,1-2.6-.4,9,9,0,0,1-6-11.2l17-56a9,9,0,0,1,17.2,5.2l-17,56A8.91,8.91,0,0,1,442.3,1232.8Z"/><path class="cls-1" d="M500.5,758.5a8.92,8.92,0,0,1-4.5-1.2l-56.9-32.4a9,9,0,0,1-3.3-12.3l32.4-56.9a8.93,8.93,0,0,1,16.4,2.1l24.5,89.3a9.08,9.08,0,0,1-6.3,11.1,8.52,8.52,0,0,1-2.3.3Zm-44.6-44.8,30.2,17.2-13-47.4Z"/><path class="cls-1" d="M291.2,1047.6a9,9,0,0,1-8.6-6.4L264,981a9,9,0,0,1,17.1-5.7c0,.1.1.3.1.4l18.6,60.2a9,9,0,0,1-6,11.3,7.46,7.46,0,0,1-2.6.4Z"/><path class="cls-1" d="M154,966.5h-1l-58.2-6.3a9,9,0,0,1,2-17.9h0l58.2,6.3a9,9,0,0,1-1,17.9Z"/><path class="cls-1" d="M360.9,839.6h-1l-58.2-6.3a9,9,0,1,1,1.9-17.9h0l58.2,6.3a9,9,0,0,1-.9,17.9Z"/><path class="cls-1" d="M515.2,1125.6a8.81,8.81,0,0,1-1.7-.2l-64.3-12.7a9,9,0,0,1-3.3-16.3l76.9-51.6a8.94,8.94,0,0,1,12.5,2.5,9.53,9.53,0,0,1,1.4,6.8L524,1118.4a8.91,8.91,0,0,1-8.8,7.2ZM474,1099.3l34.1,6.7,6.7-34.1Z"/><path class="cls-1" d="M97,776.3a38.75,38.75,0,1,1,38.8-38.8A38.75,38.75,0,0,1,97,776.3Zm0-59.5a20.75,20.75,0,1,0,20.8,20.8A20.7,20.7,0,0,0,97,716.8Z"/><path class="cls-1" d="M112.1,1136.5a9.05,9.05,0,0,1-6.4-15.4l51.6-51.6a9,9,0,0,1,12.7,0h0l45.3,45.3a9,9,0,0,1-5.8,15.3l-96.9,6.3Zm51.6-47.9L135.3,1117l53.3-3.5Z"/><path class="cls-2" d="M-45.2,824.8a9.13,9.13,0,0,1-8.2-5.3,9.21,9.21,0,0,1,1.8-10.1L0,757.8a9,9,0,0,1,12.7,0h0L58,803.1a9,9,0,0,1-5.8,15.3l-97,6.3h-.4ZM6.4,776.9-22,805.3l53.3-3.5Z"/><path class="cls-2" d="M44.8,1148.8a8.42,8.42,0,0,1-3.5-.7l-63-27a8.91,8.91,0,0,1-4.7-11.8,8.91,8.91,0,0,1,11.8-4.7h0l63,27a8.94,8.94,0,0,1,4.7,11.8A9.15,9.15,0,0,1,44.8,1148.8Z"/><path class="cls-2" d="M554.8,824.8a9.05,9.05,0,0,1-6.4-15.4L600,757.8a9,9,0,0,1,12.7,0h0L658,803.1a9,9,0,0,1-5.8,15.3l-97,6.3h-.4Zm51.6-47.9L578,805.3l53.3-3.5Z"/><path class="cls-2" d="M644.8,1148.8a8.42,8.42,0,0,1-3.5-.7l-63-27a9,9,0,1,1,6.6-16.8c.2.1.3.1.5.2l63,27a8.94,8.94,0,0,1,4.7,11.8A9.08,9.08,0,0,1,644.8,1148.8Z"/><path class="cls-2" d="M355.8,960.2H291.7a9,9,0,0,1-6.8-14.9l64.1-73a9,9,0,0,1,12.7-.8,8.9,8.9,0,0,1,3.1,6.8v73A8.94,8.94,0,0,1,355.8,960.2Zm-44.2-18h35.2V902.1Z"/><path class="cls-2" d="M208.8,653.8a9,9,0,0,1-9-9v-77a9,9,0,0,1,18,0v77A9,9,0,0,1,208.8,653.8Z"/><path class="cls-2" d="M515.9,662.8a9,9,0,0,1-8.8-7.2l-20-95.1a8.93,8.93,0,0,1,7-10.6h0a9.08,9.08,0,0,1,10.7,7h0l20,95.1a8.93,8.93,0,0,1-7,10.6h0A11.08,11.08,0,0,1,515.9,662.8Z"/><path class="cls-2" d="M208.8,1253.8a9,9,0,0,1-9-9v-77a9,9,0,0,1,18,0v77A9,9,0,0,1,208.8,1253.8Z"/><path class="cls-2" d="M515.9,1262.8a9,9,0,0,1-8.8-7.2l-20-95.1a9,9,0,0,1,17.7-3.7l20,95.1a8.93,8.93,0,0,1-7,10.6h0A5.82,5.82,0,0,1,515.9,1262.8Z"/><path class="cls-2" d="M192.1,842.8a8.42,8.42,0,0,1-3.5-.7l-63-27a9,9,0,1,1,6.7-16.7c.1,0,.2.1.4.2l63,27a8.94,8.94,0,0,1,4.7,11.8A9.26,9.26,0,0,1,192.1,842.8Z"/><path class="cls-2" d="M283.2,1109a9.1,9.1,0,0,1-7.4-3.8L214.6,1019a8.88,8.88,0,0,1,2.2-12.5,9.07,9.07,0,0,1,12.5,2.1l61.2,86.2a8.94,8.94,0,0,1-2.1,12.5,8.12,8.12,0,0,1-5.2,1.7Z"/><path class="cls-2" d="M400,814a8.31,8.31,0,0,1-4.4-1.2l-53-30a9,9,0,0,1,8.9-15.7l53,30.1a9.1,9.1,0,0,1,3.4,12.3A9.27,9.27,0,0,1,400,814Z"/><path class="cls-2" d="M92.4,1061.8a38.8,38.8,0,1,1,38.9-38.8A39.18,39.18,0,0,1,92.4,1061.8Zm0-59.5a20.8,20.8,0,1,0,20.8,20.8h0a20.91,20.91,0,0,0-20.8-20.8Z"/><path class="cls-2" d="M459.6,1024.4a38.8,38.8,0,1,1,38.8-38.8h0A38.9,38.9,0,0,1,459.6,1024.4Zm0-59.5a20.8,20.8,0,1,0,20.8,20.8h0A20.85,20.85,0,0,0,459.6,964.9Z"/><path class="cls-3" d="M97,644.8a7.67,7.67,0,0,1-3.4-.7,9,9,0,0,1-5.6-8.3V580a9,9,0,0,1,9-9h55.8a9.06,9.06,0,0,1,6.4,15.4l-55.8,55.8A9.44,9.44,0,0,1,97,644.8Zm9-55.8v25l25.1-25.1H106Z"/><path class="cls-3" d="M35.8,887.8a9.06,9.06,0,0,1-3.2-.6l-72-27a9,9,0,0,1-5.3-11.6h0a9,9,0,0,1,11.6-5.3h0l72,27a9,9,0,0,1-3.1,17.5Z"/><path class="cls-3" d="M635.8,887.8a9.06,9.06,0,0,1-3.2-.6l-72-27a9,9,0,1,1,6.3-16.9l72,27a9,9,0,0,1-3.1,17.5Z"/><path class="cls-3" d="M245.4,636a9.05,9.05,0,0,1-6.4-15.4l54.4-54.4a9,9,0,1,1,12.7,12.7h0l-54.4,54.4A8.69,8.69,0,0,1,245.4,636Z"/><path class="cls-3" d="M97,1244.8a7.67,7.67,0,0,1-3.4-.7,9,9,0,0,1-5.6-8.3V1180a9,9,0,0,1,9-9h55.8a9.05,9.05,0,0,1,6.4,15.4l-55.8,55.8A9.44,9.44,0,0,1,97,1244.8Zm9-55.8v25.1l25.1-25.1Z"/><path class="cls-3" d="M245.4,1236a9.05,9.05,0,0,1-6.4-15.4l54.4-54.4a9,9,0,0,1,12.7.3,9.13,9.13,0,0,1,0,12.5l-54.4,54.4A9,9,0,0,1,245.4,1236Z"/><path class="cls-3" d="M192.5,937.1a9,9,0,0,1-7-3.3L137.1,874a9,9,0,1,1,14-11.4l48.4,59.8a9.13,9.13,0,0,1-1.3,12.7,9,9,0,0,1-5.7,2Z"/><path class="cls-3" d="M285.8,785.6a9.05,9.05,0,0,1-6.4-15.4l54.4-54.4a9,9,0,0,1,12.7,12.7L292.2,783A9,9,0,0,1,285.8,785.6Z"/><path class="cls-3" d="M423.6,1155.1a9,9,0,0,1-7.8-4.5L377.4,1084a9,9,0,1,1,15.6-9l38.5,66.6a9,9,0,0,1-3.3,12.3,10.49,10.49,0,0,1-4.6,1.2Z"/><path class="cls-4" d="M404.8,645.9a9,9,0,0,1-5.9-2.2l-73-64.1a9,9,0,0,1,5.9-15.7h73a9,9,0,0,1,9,9V637A9,9,0,0,1,404.8,645.9Zm-49.1-64.1L395.8,617V581.8Z"/><path class="cls-4" d="M-22.7,1081.3a9.44,9.44,0,0,1-6.4-2.6,9,9,0,0,1,0-12.7l58.5-58.5a9,9,0,0,1,12.7,12.7l-58.5,58.5A9,9,0,0,1-22.7,1081.3Z"/><path class="cls-4" d="M26.8,680.8a9,9,0,0,1-5.4-1.8l-72-54a9,9,0,0,1-1.8-12.6h0a9,9,0,0,1,12.6-1.8h0l72,54A9,9,0,0,1,34,677.2,9.09,9.09,0,0,1,26.8,680.8Z"/><path class="cls-4" d="M577.3,1081.3a9.05,9.05,0,0,1-6.4-15.4l58.5-58.5a9,9,0,0,1,12.7,12.7l-58.5,58.5A8.69,8.69,0,0,1,577.3,1081.3Z"/><path class="cls-4" d="M626.8,680.8a9,9,0,0,1-5.4-1.8l-72-54a9,9,0,0,1,10.8-14.4h0l72,54a9,9,0,0,1,1.8,12.6A9.09,9.09,0,0,1,626.8,680.8Z"/><path class="cls-4" d="M404.8,1245.9a9,9,0,0,1-5.9-2.2l-73-64.1a9,9,0,0,1-.8-12.7,9.25,9.25,0,0,1,6.8-3.1h73a9,9,0,0,1,9,9v64.1A9.18,9.18,0,0,1,404.8,1245.9Zm-49.1-64.1,40.1,35.2v-35.2Z"/><path class="cls-4" d="M294.1,887.2h-.2l-97.1-1.6a9.07,9.07,0,0,1-5.7-15.9l55.7-47.3a9,9,0,0,1,12.7,1L301,872.3a9.06,9.06,0,0,1-6.9,14.9ZM221,868l53.4.9L251.6,842Z"/><path class="cls-4" d="M422.5,1057.8a8.42,8.42,0,0,1-3.5-.7l-72.8-30.3a8.92,8.92,0,0,1-4.8-11.8,9.39,9.39,0,0,1,4.9-4.9l51.6-21.2a9.13,9.13,0,0,1,11.8,4.8l21.2,51.6a9,9,0,0,1-5,11.7A8.08,8.08,0,0,1,422.5,1057.8Zm-49.3-39.4,32.7,13.7-9.5-23.2Z"/><path class="cls-4" d="M501,894.2H418.3a9,9,0,1,1,0-18H501a9,9,0,0,1,0,18Z"/><path class="cls-4" d="M177,732.1a9.09,9.09,0,0,1-8.3-5.4l-32.8-76a9,9,0,1,1,16.5-7.1l32.8,76a8.88,8.88,0,0,1-4.7,11.8,7.1,7.1,0,0,1-3.5.7Z"/><path class="cls-4" d="M295.1,728.3a8.92,8.92,0,0,1-4.5-1.2l-71.7-41.3a9,9,0,0,1,9-15.6l71.7,41.4a9,9,0,0,1,3.3,12.3,8.89,8.89,0,0,1-7.8,4.4Z"/><path class="cls-4" d="M160.6,1032.4a9.05,9.05,0,0,1-6.4-15.4l58.5-58.5a9,9,0,1,1,13,12.4l-.3.3-58.5,58.5A8.32,8.32,0,0,1,160.6,1032.4Z"/><path class="cls-4" d="M507.9,821.2a8.92,8.92,0,0,1-4.5-1.2l-71.6-41.4a9,9,0,0,1-2.9-12.4,8.89,8.89,0,0,1,11.9-3.2l71.6,41.4a9,9,0,0,1-4.5,16.8Z"/><path class="cls-4" d="M112.4,899.9a9,9,0,0,1-8.8-7.1L90.3,829.6a9,9,0,0,1,17.7-3.7l13.3,63.2a9.08,9.08,0,0,1-7,10.7c-.6,0-1.3.1-1.9.1Z"/><path class="cls-5" d="M62.6,676.6a16.5,16.5,0,1,1,16.5-16.5h0A16.52,16.52,0,0,1,62.6,676.6Z"/><path class="cls-5" d="M396.9,949.3a16.5,16.5,0,1,1,16.5-16.5h0A16.52,16.52,0,0,1,396.9,949.3Z"/><path class="cls-5" d="M386.1,737.8a16.5,16.5,0,1,1,16.5-16.5A16.52,16.52,0,0,1,386.1,737.8Z"/><path class="cls-5" d="M62.6,1116a9.44,9.44,0,0,1-6.4-2.6l-10.9-10.9a9,9,0,0,1,0-12.7l10.9-10.9a9,9,0,0,1,12.7,0h0l10.8,10.9a9,9,0,0,1,0,12.7L69,1113.4A9,9,0,0,1,62.6,1116Z"/><path class="cls-5" d="M562.3,1180.1a9.44,9.44,0,0,1-6.4-2.6L545,1166.6a9,9,0,0,1,0-12.7l10.9-10.9a9,9,0,0,1,12.7,0l10.9,10.9a9,9,0,0,1,0,12.7l-10.9,10.9A8.6,8.6,0,0,1,562.3,1180.1Z"/><path class="cls-5" d="M281.4,672.3a9,9,0,0,1-5.7-2l-12-9.7a8.94,8.94,0,0,1-1.3-12.7h0l9.7-11.9a8.94,8.94,0,0,1,12.7-1.3h0l12,9.7a8.94,8.94,0,0,1,1.3,12.7h0L288.4,669a9.08,9.08,0,0,1-6,3.3A3.33,3.33,0,0,0,281.4,672.3Z"/><path class="cls-5" d="M70.1,926.8a16.5,16.5,0,1,1,16.5-16.5h0A16.52,16.52,0,0,1,70.1,926.8Z"/><path class="cls-5" d="M443.6,857.6a16.5,16.5,0,1,1,16.5-16.5h0A16.52,16.52,0,0,1,443.6,857.6Z"/><path class="cls-5" d="M554.8,909.2a16.5,16.5,0,1,1,16.5-16.5h0A16.45,16.45,0,0,1,554.8,909.2Z"/><path class="cls-5" d="M208.8,787.6a16.5,16.5,0,1,1,16.5-16.5A16.52,16.52,0,0,1,208.8,787.6Z"/><path class="cls-5" d="M246.6,945.1a9,9,0,0,1-5.7-2L229,933.4a8.92,8.92,0,0,1-1.3-12.6l9.7-12a8.94,8.94,0,0,1,12.7-1.3h0l11.9,9.7a8.94,8.94,0,0,1,1.3,12.7h0l-9.7,12a9.08,9.08,0,0,1-6.1,3.3A2.48,2.48,0,0,0,246.6,945.1Z"/><path class="cls-5" d="M533,718.6a9,9,0,0,1-5.7-2l-11.9-9.7a8.94,8.94,0,0,1-1.3-12.7h0l9.7-11.9a8.94,8.94,0,0,1,12.7-1.3l11.9,9.7a8.94,8.94,0,0,1,1.3,12.7h0L540,715.3a9.08,9.08,0,0,1-6,3.3Z"/><path class="cls-5" d="M331.8,1101.8a16.5,16.5,0,1,1,16.5-16.5h0A16.52,16.52,0,0,1,331.8,1101.8Z"/></svg>