<svg id="Layer_1" data-name="Layer 1" xmlns="http://www.w3.org/2000/svg" viewBox="0 0 328.17 663.25"><defs><style>.cls-1{fill:#6ab04c;}.cls-2{fill:#badc58;}</style></defs><title>Artboard 1</title><path class="cls-1" d="M275.87,190.25c-1.8,6.93-3.49,7.38-10.08,20.63-8.9,17.92-7.13,19.76-13.91,32.62-5.18,9.84-5.58,7.55-19.66,28.78,0,0-7.51,11.31-17.75,30.22-6.54,12.07-9.53,18.77-7.68,26.38.28,1.13,2.3,9,7.2,10.07,6.2,1.35,13.18-9.11,17.27-15.35,9-13.73,9.64-21.46,17.26-41.73,8.14-21.64,10.44-20.93,16.31-39.33s3-17.08,8.16-30.7c3.81-10,7.55-16.45,9.75-22.33a2.17,2.17,0,0,1,4.08.13c7.19,22.07,12.74,43,17,62a.82.82,0,0,1,0,.44c-.73,2.11.72,12.14-2.52,25.95-2.45,10.42-6.41,18.09-13.43,31.66-4.08,7.89-7.71,14-10.55,18.71-8.44,13.87-16.43,27-28.31,41.73-14.67,18.21-27.69,29.45-27.82,43.17,0,4.93,1.61,6.59,2.4,7.2,5,3.77,16.32-3.59,19.67-5.76,9.65-6.25,19.48-16.32,35-48.44,9.37-19.36,4.46-12.94,20.15-49.41,4.16-9.66,7.43-16.94,9.41-24.18a2.1,2.1,0,0,1,4.1.22c4.87,29.48,6.25,49.39,6.88,53.94,2.25,16.2,4.12,31.37,5.63,45.67a46.27,46.27,0,0,1-3.91,24,81.43,81.43,0,0,1-6.76,12.08c-4.75,7-10.56,15.34-21.11,20.15-5,2.27-4.67.86-18.7,5.28-13.71,4.31-13.92,5.62-20.15,6.23-3.65.36-12.4.77-17.27,1-5.06.2-8.1.25-9.59,2.4-2.05,3,.54,7.83,1,8.63,4.36,8.27,15.78,9.43,17.75,9.6h0a47.1,47.1,0,0,0,18.7,1c9.28-1.43,15.69-5.23,21.59-9.12A96.94,96.94,0,0,0,306.09,456,98.49,98.49,0,0,0,322,430.53a1.7,1.7,0,0,1,3.27.57L328,488.22a118.22,118.22,0,0,1-2,28.91c-.57,2.9-1.29,5.91-2.19,8.9-1.63,5.43-5.08,16.44-15.35,24.94-1.92,1.6-13,10.5-28.3,10.08-4.91-.14-9.83-1.86-19.66-5.28-14.46-5-21.69-7.56-27.35-10.55-3.44-1.83-5.95-3.38-7.19-2.4-2.24,1.76,1.09,10.54,5.28,16.79,1.38,2.06,5.1,7.2,19.66,16.31,11.89,7.43,17.83,11.14,24,11.51,11.69.69,20.63-6.1,24-8.64,7.24-5.48,9.67-10.72,18.71-28.3l1.7-3.31a1.24,1.24,0,0,1,2.31.84c-5.41,25.7-13.78,49.49-25.12,74.42A63.07,63.07,0,0,1,276.33,647a19,19,0,0,1-26.79-4.15c-1.19-1.65-2.49-3.48-3.89-5.52-10-14.4-14-22.17-24-32.13-4.62-4.63-8.6-8.6-10.07-7.68-3.05,1.92,6.36,23.71,18.23,40.77,7.34,10.57,12.4,14.67,15.35,16.79,1,.7,1.91,1.33,2.87,1.91a1.92,1.92,0,0,1-.49,3.5c-25.33,6.53-51.12,1.39-56.83-13.56-2.7-7.08-7.31-22.79-11.94-39a144.22,144.22,0,0,1-5.56-38.41v-.34c-.06-7.59-.25-17.32-3.35-28.78-1.66-6.11-3.15-9.1-4.8-9.11s-3,2.92-3.84,4.79a30.4,30.4,0,0,0-2.4,13.91c.4,7.19-.19,14.4,0,21.59v.1a70.36,70.36,0,0,1-1.78,17.53c-3.42,15-7.42,31.9-10.67,40.41-5,13.2-26.47,21.44-49.43,20.82a3,3,0,0,1-2-5.09c2.12-2.17,4.38-4.94,7.28-8.54,7.57-9.36,13.08-16.34,14.87-26.86.79-4.61,1.15-11.54-.48-12-2.12-.58-5.81,10.48-16.79,28.78-8,13.34-12,17.43-17.27,20.15a28.06,28.06,0,0,1-2.77,1.26.65.65,0,0,1-.39,0C61.81,644,45.57,634,37.51,616.26c-8-17.56-15.31-34.84-21.32-53.28a2.12,2.12,0,0,1,3.63-2.05l9.9,11.55.15.15c9.23,8.82,13.87,13.24,20.55,14.32,6.3,1,11.39-1.4,21.58-6.24a86.46,86.46,0,0,0,22.07-15.35c9.59-9.11,10.19-13.78,10.07-16.31-.1-2.11-.84-5.57-2.88-6.23-3.22-1.06-7.93,5.44-10.07,8.15-9.34,11.83-28,25.3-41.73,24.47-9.79-.6-17.69-8.55-23.47-16.81a89.64,89.64,0,0,1-11.46-23.26l-3.32-10A217,217,0,0,1,0,457.42c0-7,.15-14.16.48-21.65A1.73,1.73,0,0,1,3.71,435a67.42,67.42,0,0,0,5.93,8.54,70.63,70.63,0,0,0,24.47,18.71A71.2,71.2,0,0,0,53.77,469c8.3,1.49,20.47,3.67,31.66-2.88,6.68-3.91,14.22-11.64,12.47-15.35-2.34-5-18.56,3.45-40.29.48-2-.27-30.51-4.56-46-25.42a53.6,53.6,0,0,1-8.92-19.27.65.65,0,0,1,0-.24c3.09-31.47,9-67.5,18.54-109.67.12-.54.23-1.22.36-2.06a2,2,0,0,1,3.72-.48C28,300.65,31.82,309.24,37,320.73c22.2,49.37,10.49,20.24,23.5,48.92,6.2,13.66,14.58,32.89,27.34,37.42,2,.72,7.43,2.63,11,0,3.06-2.24,3.3-6.61,3.36-7.68.45-8.05-6-13.29-15.83-24.46-5.94-6.79-9.57-11.74-16.79-21.59A254.92,254.92,0,0,1,52.81,327C38.48,301.82,31,288.77,27.87,271.8a91.4,91.4,0,0,1-1.48-13.62.48.48,0,0,1,0-.12,472.83,472.83,0,0,1,20-76.68,6.61,6.61,0,0,1,12.63.47l.06.25c1.86,7.08,4,13.45,8.16,25.9,8.24,24.62,8.51,22.91,12.47,35.5,5.92,18.85,9.92,37.33,20.14,52.28,2.38,3.48,6,8.1,10.08,7.68s6.39-5.53,6.71-6.24c2.62-5.79.67-12.17-4.79-24-6.39-13.8-12.07-23.14-18.71-35-5.37-9.61-8.06-14.41-10.08-18.71-8.26-17.59-11.53-32.62-14.87-48.44-3.27-15.52-4.91-23.28-4.79-29.75,0-1,.06-1.92.11-2.87a1.05,1.05,0,0,1,.06-.24A615.64,615.64,0,0,1,94.31,78.49c13.21-22.61,19.18-29.2,25.35-34.2a2.81,2.81,0,0,1,4.56,2.55c-1.89,14.44-3.76,28.73-3.77,28.77h0c-1.08,15.55-1.59,23.55,0,34.54,1,7.28,3.6,15.51,8.63,31.65,9.7,31.08,12.16,32.76,13.44,32.62,1.1-.12,2.6-1.72,3.82-9.48a1.69,1.69,0,0,0,0-.23c.07-23.09,0-25.78,0-25.78-.6-22.49-8.15-30.48-12.47-50.85a50,50,0,0,1-.77-6.67,109,109,0,0,1,21.27-71.26L161.63.33a.83.83,0,0,1,1.32,0C177,18.73,187.21,29,195.57,36a.62.62,0,0,1,.2.34c.16.75.32,1.54.47,2.34a127.86,127.86,0,0,1,1.92,27.82c-.23,11.23-1.63,19.26-3.36,29.27-2.21,12.73-3.63,20.95-7.2,31.65-1.49,4.48-2.9,8-3.83,13.91a60.44,60.44,0,0,0,0,18.71c.94,6.09,1.82,11.75,3.83,12s4.09-5.24,12-27.34c7.74-21.63,8.39-23.63,9.11-27.82,1.5-8.64,1.32-15.19,1-28.3-.27-10-1.1-18-1.92-25.9L206,48.6a2,2,0,0,1,3.3-1.65C222,59.58,243.17,92.12,242.34,97.46h0a111.7,111.7,0,0,1-5.81,21.8c-8.14,23-5.43,23.34-12.47,40.29-3.23,7.78-4.69,9.87-7.67,18.23-4.07,11.41-2.83,11.69-6.24,19.19-2.42,5.33-4.78,9-5.76,15.35a29.29,29.29,0,0,0,0,8.63c.41,3.76.69,6.1,2.4,7.2,2.3,1.46,5.74-.24,6.24-.48,5.54-2.74,7.12-10,8.63-16.79,2-9.13,4.56-18.15,6.24-27.34.93-5.09,3.55-19.4,6.71-32.62.67-2.77,1.44-5.87,7.68-27.34,2.76-9.52,4.92-16.88,6.46-22.75a.75.75,0,0,1,1.39-.14c9,17.63,16.79,35.21,23.56,52.41"/><path class="cls-2" d="M308.84,484.56c-.5.68-1,1.38-1.5,2.05l-1.68,1.92c-1.14,1.25-2.19,2.58-3.4,3.77l-3.69,3.48a73.13,73.13,0,0,1-16.82,11,88.08,88.08,0,0,1-39,7.19,153.44,153.44,0,0,1-39.39-6.66c-6.41-1.88-12.73-4.1-18.93-6.58-3.1-1.23-6.17-2.56-9.2-3.93-1.94-.88-3.9-1.82-5.8-2.77l-.51-44.93c1.76.27,3.52.51,5.28.74,4,.47,8,.84,12,1.05a164.64,164.64,0,0,0,24-.39c15.92-1.42,31.9-5.46,46-13.35a85.17,85.17,0,0,0,19.16-14.44,92.7,92.7,0,0,0,14.13-19.06c7.36-14,11.25-29.25,12.78-44.55-2.83,15.12-8,29.83-16.18,42.51a87.4,87.4,0,0,1-14.77,16.76,78.79,78.79,0,0,1-18.69,11.72c-13.42,6.07-28.26,8.51-43,8.55a150.12,150.12,0,0,1-22.11-1.54c-3.66-.51-7.29-1.16-10.9-1.9-1.79-.39-3.58-.79-5.35-1.24l-2.52-.66-.45-38.72c.8-.08,1.58-.18,2.37-.28,2.13-.3,4.23-.67,6.29-1.13a94.41,94.41,0,0,0,12.14-3.52,110.17,110.17,0,0,0,22.35-11.12,135.63,135.63,0,0,0,35.45-33.91,171.2,171.2,0,0,0,13-20.6,222.76,222.76,0,0,0,10.39-21.93A296.12,296.12,0,0,0,284.5,256,293.63,293.63,0,0,1,268,301.06a217,217,0,0,1-11.35,21,167.57,167.57,0,0,1-13.73,19.4,129.3,129.3,0,0,1-35.41,30.56,101.46,101.46,0,0,1-21.2,9.2,83.29,83.29,0,0,1-11.14,2.61c-1.87.32-3.75.54-5.61.72l-1.38.1-1.09-95.51.65-.18c.82-.23,1.61-.5,2.4-.75,1.57-.53,3.11-1.11,4.63-1.72a94.12,94.12,0,0,0,8.81-4.1A108.46,108.46,0,0,0,199.71,272a121.79,121.79,0,0,0,25.82-27.6A147.39,147.39,0,0,0,235,228.29c1.31-2.83,2.76-5.58,3.9-8.47l1.8-4.29,1.6-4.37a192.89,192.89,0,0,0,9.06-35.78,192.26,192.26,0,0,1-11.72,34.7l-1.91,4.14-2.08,4.05c-1.33,2.73-2.95,5.3-4.43,7.93A140.88,140.88,0,0,1,220.91,241a114.7,114.7,0,0,1-26.23,24,100.37,100.37,0,0,1-15.46,8.34,85,85,0,0,1-8.14,3Q169,277,167,277.55h0l-.62-54.34a11,11,0,0,0,2-.25c.78-.18,1.6-.31,2.31-.55l2.11-.8a11.08,11.08,0,0,0,2-.94l1.85-1a35.15,35.15,0,0,0,3.29-2.4,22.92,22.92,0,0,0,2.9-2.64l1.36-1.37a10.59,10.59,0,0,0,1.28-1.41l2.32-2.93,1.16-1.47,1-1.54,2-3.07,1-1.54c.32-.51.57-1.05.86-1.58l3.3-6.35,2.8-6.5c.46-1.09.94-2.16,1.37-3.25l1.18-3.31,2.33-6.61c.77-2.2,1.34-4.46,2-6.68l1.95-6.69c.62-2.23,1.1-4.5,1.66-6.75,2.32-9,3.92-18.06,5.71-27.1-2.72,8.82-5.25,17.67-8.47,26.27-.78,2.16-1.48,4.34-2.33,6.47l-2.59,6.35c-.89,2.11-1.67,4.26-2.65,6.32L197,178l-1.46,3.07c-.52,1-1.09,2-1.63,3l-3.29,5.88-3.68,5.56c-.32.46-.6.94-.93,1.37l-1,1.28-2,2.56-1,1.27-1.12,1.14-2.21,2.26a8.58,8.58,0,0,1-1.15,1l-1.19,1a15.68,15.68,0,0,1-2.4,1.76,25.9,25.9,0,0,1-2.45,1.43l-1.22.52a5.11,5.11,0,0,1-1.2.43l-1.17.3c-.38.09-.72.06-1.07.12a1.74,1.74,0,0,1-.55,0L164.09,29.18,161.7,237.71l-.18-.05c-1.35-.45-2.71-.94-4.05-1.52a65.66,65.66,0,0,1-7.88-3.92,81.48,81.48,0,0,1-14.38-10.68,105.41,105.41,0,0,1-21.78-29.31,159.7,159.7,0,0,1-12.74-35.11A239.08,239.08,0,0,1,95,119.74a239.33,239.33,0,0,0,2.87,37.94,164.12,164.12,0,0,0,10.34,37,112.77,112.77,0,0,0,20.89,33,90.94,90.94,0,0,0,15.09,13.09,77,77,0,0,0,8.73,5.2c1.52.79,3.09,1.5,4.69,2.17.82.33,1.62.66,2.47,1,.43.15.85.3,1.3.44l.18.06-1.32,115.06-1.78-.07c-1.88-.11-3.77-.29-5.65-.51A105.51,105.51,0,0,1,141.58,362a104.11,104.11,0,0,1-21.48-7.9,99.88,99.88,0,0,1-19.25-12.57,112.86,112.86,0,0,1-16.13-16.57C75,312.8,67.91,298.69,62.6,284a222.73,222.73,0,0,1-10.74-45.77,223.08,223.08,0,0,0,9,46.34c4.79,15,11.45,29.68,20.95,42.55a117.33,117.33,0,0,0,16.07,17.8,105.7,105.7,0,0,0,19.66,13.94,106.69,106.69,0,0,0,34.27,11.86c2,.32,4,.6,6.08.79.75.07,1.49.12,2.23.17l-.58,50.87c-.69.32-1.41.64-2.1.93-1.43.62-2.9,1.2-4.38,1.74-3,1.1-6,2.06-9.07,2.87a100.43,100.43,0,0,1-18.79,3.19,85.55,85.55,0,0,1-19-.79,76.49,76.49,0,0,1-18.36-5.35A84.9,84.9,0,0,1,57,401.85a138.9,138.9,0,0,1-21-33.62,140.4,140.4,0,0,0,18.72,35.42,94.9,94.9,0,0,0,13.69,15,81.32,81.32,0,0,0,16.92,11.66,82.73,82.73,0,0,0,19.44,7.21,93.7,93.7,0,0,0,20.71,2.36,109.72,109.72,0,0,0,20.76-2c3.42-.65,6.82-1.45,10.18-2.43,1-.29,2-.63,3-1l-.56,48.65c-.71.77-1.7,1.72-2.6,2.56s-2.05,1.87-3.1,2.78c-2.11,1.84-4.34,3.56-6.59,5.25a115.94,115.94,0,0,1-14.29,9.05,90.74,90.74,0,0,1-32.06,10.43,80.29,80.29,0,0,1-17,.1,84.18,84.18,0,0,1-16.82-3.81A102.19,102.19,0,0,1,36,492a104.21,104.21,0,0,0,29,20.9,89.93,89.93,0,0,0,17.32,5.8,86.81,86.81,0,0,0,18.37,1.75,99.69,99.69,0,0,0,36.18-7.83,130.71,130.71,0,0,0,16.66-8.32q2.6-1.57,5.14-3.24l-.09,7.67-.18-.1c-2.59,5.15-5.64,10.49-8.72,15.62s-6.36,10.25-9.76,15.24A262.57,262.57,0,0,1,117.59,568a180.15,180.15,0,0,1-12.8,12.83c-2.21,2.07-4.56,4-6.87,5.92s-4.76,3.74-7.27,5.43a89.78,89.78,0,0,1-33,14.93c12.21-1.45,24-6,34.77-12.19,2.72-1.51,5.31-3.23,7.93-4.9s5.13-3.53,7.58-5.45a186,186,0,0,0,14.29-12,269.54,269.54,0,0,0,25.52-27.25c3.33-4.06,6.54-8.22,9.67-12.44l-.12,1.26c-.31,2.51-.56,5-.93,7.54a223.31,223.31,0,0,1-6.17,29.87l-1,3.7c-.34,1.23-.77,2.43-1.15,3.65-.79,2.43-1.54,4.88-2.36,7.3-1.84,4.76-3.47,9.64-5.63,14.29a209.75,209.75,0,0,1-14.28,27.35,210.12,210.12,0,0,0,16.86-26.09c2.63-4.5,4.73-9.26,7.06-13.94,1.06-2.38,2-4.79,3.09-7.19.5-1.2,1-2.39,1.51-3.61l1.37-3.67a233,233,0,0,0,9.19-30.07c.3-1.24.57-2.48.84-3.73.44,1.37.87,2.75,1.33,4.11a307.26,307.26,0,0,0,11.69,29.68c2.1,4.87,4.56,9.59,6.87,14.34,2.56,4.65,4.92,9.38,7.71,13.89a269.6,269.6,0,0,0,17.58,26.28,265.77,265.77,0,0,1-15-27.63c-2.34-4.68-4.24-9.56-6.33-14.34-1.85-4.89-3.84-9.71-5.46-14.67a304.66,304.66,0,0,1-8.74-29.93c-.25-1.09-.48-2.19-.73-3.28,2.59,3.39,5.21,6.76,7.93,10a252.87,252.87,0,0,0,28.21,29.41c10.21,9,21.53,16.92,34.11,22.25a67.15,67.15,0,0,0,19.75,4.93,50.54,50.54,0,0,0,20-2.3,49.54,49.54,0,0,1-19.76.69,64.61,64.61,0,0,1-18.6-6.26c-11.64-6.1-21.87-14.58-31-24a246.47,246.47,0,0,1-24.93-30.58q-5.64-8.11-10.8-16.55c-1.71-2.81-3.39-5.63-5-8.49s-3.23-5.76-4.64-8.52l-.17.09,0-4,2,.79c3.26,1.24,6.53,2.42,9.83,3.5,6.59,2.18,13.28,4.07,20,5.61,13.52,3.08,27.41,4.91,41.33,4.38s27.83-3.5,40.12-10a75.36,75.36,0,0,0,16.55-12.32l3.52-3.76c1.15-1.27,2.13-2.69,3.2-4l1.56-2c.49-.71.93-1.44,1.39-2.16l2.74-4.31Z"/></svg>