<svg id="Layer_1" data-name="Layer 1" xmlns="http://www.w3.org/2000/svg" viewBox="0 0 1200 2397.34"><defs><style>.cls-1{fill:#333;}.cls-2{fill:#666;}</style></defs><title>Artboard 1</title><path class="cls-1" d="M1101.22,0H98.78A98.77,98.77,0,0,0,0,98.78V2301.22A98.78,98.78,0,0,0,98.78,2400H1101.22a98.79,98.79,0,0,0,98.78-98.78V98.78A98.78,98.78,0,0,0,1101.22,0Zm25.59,2267.7a59.1,59.1,0,0,1-59.1,59.11H132.29a59.1,59.1,0,0,1-59.1-59.11V132.29a59.1,59.1,0,0,1,59.1-59.1H308.08V95.34A58.61,58.61,0,0,0,366.68,154H824.73a58.6,58.6,0,0,0,58.6-58.61V73.19h184.38a59.1,59.1,0,0,1,59.1,59.1Z"/><circle class="cls-2" cx="726.57" cy="76.83" r="12.88"/><rect class="cls-2" x="514.14" y="64.24" width="163.13" height="25.47" rx="12.73" ry="12.73"/><path class="cls-2" d="M781.74,2298.28H418.26a6.44,6.44,0,1,1,0-12.88H781.74a6.44,6.44,0,0,1,0,12.88Z"/></svg>